<?xml version="1.0" encoding="utf-8" standalone="no"?>
<!DOCTYPE svg PUBLIC "-//W3C//DTD SVG 1.1//EN"
  "http://www.w3.org/Graphics/SVG/1.1/DTD/svg11.dtd">
<svg xmlns:xlink="http://www.w3.org/1999/xlink" width="756pt" height="648pt" viewBox="0 0 756 648" xmlns="http://www.w3.org/2000/svg" version="1.1">
 <metadata>
  <rdf:RDF xmlns:dc="http://purl.org/dc/elements/1.1/" xmlns:cc="http://creativecommons.org/ns#" xmlns:rdf="http://www.w3.org/1999/02/22-rdf-syntax-ns#">
   <cc:Work>
    <dc:type rdf:resource="http://purl.org/dc/dcmitype/StillImage"/>
    <dc:date>2021-12-13T12:48:10.444937</dc:date>
    <dc:format>image/svg+xml</dc:format>
    <dc:creator>
     <cc:Agent>
      <dc:title>Matplotlib v3.5.0, https://matplotlib.org/</dc:title>
     </cc:Agent>
    </dc:creator>
   </cc:Work>
  </rdf:RDF>
 </metadata>
 <defs>
  <style type="text/css">*{stroke-linejoin: round; stroke-linecap: butt}</style>
 </defs>
 <g id="figure_1">
  <g id="patch_1">
   <path d="M 0 648 
L 756 648 
L 756 0 
L 0 0 
z
" style="fill: #ffffff"/>
  </g>
  <g id="axes_1">
   <g id="patch_2">
    <path d="M 58.97125 593.294375 
L 745.2 593.294375 
L 745.2 30.477187 
L 58.97125 30.477187 
z
" style="fill: #ffffff"/>
   </g>
   <g id="patch_3">
    <path d="M 402.085625 45.377427 
L 201.118627 45.377427 
L 201.118627 33.263411 
L 402.085625 33.263411 
z
" clip-path="url(#p1279481ad9)" style="fill: #9e75b7; stroke: #000000; stroke-width: 0.25; stroke-linejoin: miter"/>
   </g>
   <g id="patch_4">
    <path d="M 402.085625 45.377427 
L 603.052623 45.377427 
L 603.052623 33.263411 
L 402.085625 33.263411 
z
" clip-path="url(#p1279481ad9)" style="fill: #fecc5d; stroke: #000000; stroke-width: 0.25; stroke-linejoin: miter"/>
   </g>
   <g id="matplotlib.axis_1">
    <g id="xtick_1">
     <g id="line2d_1">
      <defs>
       <path id="md90d8cdff7" d="M 0 0 
L 0 3.5 
" style="stroke: #000000; stroke-width: 0.8"/>
      </defs>
      <g>
       <use xlink:href="#md90d8cdff7" x="136.250152" y="593.294375" style="stroke: #000000; stroke-width: 0.8"/>
      </g>
     </g>
     <g id="text_1">
      <!-- -6.0 -->
      <g transform="translate(122.592496 610.932187)scale(0.14 -0.14)">
       <defs>
        <path id="DejaVuSans-2d" d="M 313 2009 
L 1997 2009 
L 1997 1497 
L 313 1497 
L 313 2009 
z
" transform="scale(0.015625)"/>
        <path id="DejaVuSans-36" d="M 2113 2584 
Q 1688 2584 1439 2293 
Q 1191 2003 1191 1497 
Q 1191 994 1439 701 
Q 1688 409 2113 409 
Q 2538 409 2786 701 
Q 3034 994 3034 1497 
Q 3034 2003 2786 2293 
Q 2538 2584 2113 2584 
z
M 3366 4563 
L 3366 3988 
Q 3128 4100 2886 4159 
Q 2644 4219 2406 4219 
Q 1781 4219 1451 3797 
Q 1122 3375 1075 2522 
Q 1259 2794 1537 2939 
Q 1816 3084 2150 3084 
Q 2853 3084 3261 2657 
Q 3669 2231 3669 1497 
Q 3669 778 3244 343 
Q 2819 -91 2113 -91 
Q 1303 -91 875 529 
Q 447 1150 447 2328 
Q 447 3434 972 4092 
Q 1497 4750 2381 4750 
Q 2619 4750 2861 4703 
Q 3103 4656 3366 4563 
z
" transform="scale(0.015625)"/>
        <path id="DejaVuSans-2e" d="M 684 794 
L 1344 794 
L 1344 0 
L 684 0 
L 684 794 
z
" transform="scale(0.015625)"/>
        <path id="DejaVuSans-30" d="M 2034 4250 
Q 1547 4250 1301 3770 
Q 1056 3291 1056 2328 
Q 1056 1369 1301 889 
Q 1547 409 2034 409 
Q 2525 409 2770 889 
Q 3016 1369 3016 2328 
Q 3016 3291 2770 3770 
Q 2525 4250 2034 4250 
z
M 2034 4750 
Q 2819 4750 3233 4129 
Q 3647 3509 3647 2328 
Q 3647 1150 3233 529 
Q 2819 -91 2034 -91 
Q 1250 -91 836 529 
Q 422 1150 422 2328 
Q 422 3509 836 4129 
Q 1250 4750 2034 4750 
z
" transform="scale(0.015625)"/>
       </defs>
       <use xlink:href="#DejaVuSans-2d"/>
       <use xlink:href="#DejaVuSans-36" x="36.083984"/>
       <use xlink:href="#DejaVuSans-2e" x="99.707031"/>
       <use xlink:href="#DejaVuSans-30" x="131.494141"/>
      </g>
     </g>
    </g>
    <g id="xtick_2">
     <g id="line2d_2">
      <g>
       <use xlink:href="#md90d8cdff7" x="224.861976" y="593.294375" style="stroke: #000000; stroke-width: 0.8"/>
      </g>
     </g>
     <g id="text_2">
      <!-- -4.0 -->
      <g transform="translate(211.20432 610.932187)scale(0.14 -0.14)">
       <defs>
        <path id="DejaVuSans-34" d="M 2419 4116 
L 825 1625 
L 2419 1625 
L 2419 4116 
z
M 2253 4666 
L 3047 4666 
L 3047 1625 
L 3713 1625 
L 3713 1100 
L 3047 1100 
L 3047 0 
L 2419 0 
L 2419 1100 
L 313 1100 
L 313 1709 
L 2253 4666 
z
" transform="scale(0.015625)"/>
       </defs>
       <use xlink:href="#DejaVuSans-2d"/>
       <use xlink:href="#DejaVuSans-34" x="36.083984"/>
       <use xlink:href="#DejaVuSans-2e" x="99.707031"/>
       <use xlink:href="#DejaVuSans-30" x="131.494141"/>
      </g>
     </g>
    </g>
    <g id="xtick_3">
     <g id="line2d_3">
      <g>
       <use xlink:href="#md90d8cdff7" x="313.473801" y="593.294375" style="stroke: #000000; stroke-width: 0.8"/>
      </g>
     </g>
     <g id="text_3">
      <!-- -2.0 -->
      <g transform="translate(299.816144 610.932187)scale(0.14 -0.14)">
       <defs>
        <path id="DejaVuSans-32" d="M 1228 531 
L 3431 531 
L 3431 0 
L 469 0 
L 469 531 
Q 828 903 1448 1529 
Q 2069 2156 2228 2338 
Q 2531 2678 2651 2914 
Q 2772 3150 2772 3378 
Q 2772 3750 2511 3984 
Q 2250 4219 1831 4219 
Q 1534 4219 1204 4116 
Q 875 4013 500 3803 
L 500 4441 
Q 881 4594 1212 4672 
Q 1544 4750 1819 4750 
Q 2544 4750 2975 4387 
Q 3406 4025 3406 3419 
Q 3406 3131 3298 2873 
Q 3191 2616 2906 2266 
Q 2828 2175 2409 1742 
Q 1991 1309 1228 531 
z
" transform="scale(0.015625)"/>
       </defs>
       <use xlink:href="#DejaVuSans-2d"/>
       <use xlink:href="#DejaVuSans-32" x="36.083984"/>
       <use xlink:href="#DejaVuSans-2e" x="99.707031"/>
       <use xlink:href="#DejaVuSans-30" x="131.494141"/>
      </g>
     </g>
    </g>
    <g id="xtick_4">
     <g id="line2d_4">
      <g>
       <use xlink:href="#md90d8cdff7" x="402.085625" y="593.294375" style="stroke: #000000; stroke-width: 0.8"/>
      </g>
     </g>
     <g id="text_4">
      <!-- 0.0 -->
      <g transform="translate(390.953438 610.932187)scale(0.14 -0.14)">
       <use xlink:href="#DejaVuSans-30"/>
       <use xlink:href="#DejaVuSans-2e" x="63.623047"/>
       <use xlink:href="#DejaVuSans-30" x="95.410156"/>
      </g>
     </g>
    </g>
    <g id="xtick_5">
     <g id="line2d_5">
      <g>
       <use xlink:href="#md90d8cdff7" x="490.697449" y="593.294375" style="stroke: #000000; stroke-width: 0.8"/>
      </g>
     </g>
     <g id="text_5">
      <!-- 2.0 -->
      <g transform="translate(479.565262 610.932187)scale(0.14 -0.14)">
       <use xlink:href="#DejaVuSans-32"/>
       <use xlink:href="#DejaVuSans-2e" x="63.623047"/>
       <use xlink:href="#DejaVuSans-30" x="95.410156"/>
      </g>
     </g>
    </g>
    <g id="xtick_6">
     <g id="line2d_6">
      <g>
       <use xlink:href="#md90d8cdff7" x="579.309274" y="593.294375" style="stroke: #000000; stroke-width: 0.8"/>
      </g>
     </g>
     <g id="text_6">
      <!-- 4.0 -->
      <g transform="translate(568.177086 610.932187)scale(0.14 -0.14)">
       <use xlink:href="#DejaVuSans-34"/>
       <use xlink:href="#DejaVuSans-2e" x="63.623047"/>
       <use xlink:href="#DejaVuSans-30" x="95.410156"/>
      </g>
     </g>
    </g>
    <g id="xtick_7">
     <g id="line2d_7">
      <g>
       <use xlink:href="#md90d8cdff7" x="667.921098" y="593.294375" style="stroke: #000000; stroke-width: 0.8"/>
      </g>
     </g>
     <g id="text_7">
      <!-- 6.0 -->
      <g transform="translate(656.78891 610.932187)scale(0.14 -0.14)">
       <use xlink:href="#DejaVuSans-36"/>
       <use xlink:href="#DejaVuSans-2e" x="63.623047"/>
       <use xlink:href="#DejaVuSans-30" x="95.410156"/>
      </g>
     </g>
    </g>
    <g id="text_8">
     <!-- Score shift $\delta \Phi_{\tau}$ (%) -->
     <g transform="translate(306.585625 633.040625)scale(0.2 -0.2)">
      <defs>
       <path id="DejaVuSans-53" d="M 3425 4513 
L 3425 3897 
Q 3066 4069 2747 4153 
Q 2428 4238 2131 4238 
Q 1616 4238 1336 4038 
Q 1056 3838 1056 3469 
Q 1056 3159 1242 3001 
Q 1428 2844 1947 2747 
L 2328 2669 
Q 3034 2534 3370 2195 
Q 3706 1856 3706 1288 
Q 3706 609 3251 259 
Q 2797 -91 1919 -91 
Q 1588 -91 1214 -16 
Q 841 59 441 206 
L 441 856 
Q 825 641 1194 531 
Q 1563 422 1919 422 
Q 2459 422 2753 634 
Q 3047 847 3047 1241 
Q 3047 1584 2836 1778 
Q 2625 1972 2144 2069 
L 1759 2144 
Q 1053 2284 737 2584 
Q 422 2884 422 3419 
Q 422 4038 858 4394 
Q 1294 4750 2059 4750 
Q 2388 4750 2728 4690 
Q 3069 4631 3425 4513 
z
" transform="scale(0.015625)"/>
       <path id="DejaVuSans-63" d="M 3122 3366 
L 3122 2828 
Q 2878 2963 2633 3030 
Q 2388 3097 2138 3097 
Q 1578 3097 1268 2742 
Q 959 2388 959 1747 
Q 959 1106 1268 751 
Q 1578 397 2138 397 
Q 2388 397 2633 464 
Q 2878 531 3122 666 
L 3122 134 
Q 2881 22 2623 -34 
Q 2366 -91 2075 -91 
Q 1284 -91 818 406 
Q 353 903 353 1747 
Q 353 2603 823 3093 
Q 1294 3584 2113 3584 
Q 2378 3584 2631 3529 
Q 2884 3475 3122 3366 
z
" transform="scale(0.015625)"/>
       <path id="DejaVuSans-6f" d="M 1959 3097 
Q 1497 3097 1228 2736 
Q 959 2375 959 1747 
Q 959 1119 1226 758 
Q 1494 397 1959 397 
Q 2419 397 2687 759 
Q 2956 1122 2956 1747 
Q 2956 2369 2687 2733 
Q 2419 3097 1959 3097 
z
M 1959 3584 
Q 2709 3584 3137 3096 
Q 3566 2609 3566 1747 
Q 3566 888 3137 398 
Q 2709 -91 1959 -91 
Q 1206 -91 779 398 
Q 353 888 353 1747 
Q 353 2609 779 3096 
Q 1206 3584 1959 3584 
z
" transform="scale(0.015625)"/>
       <path id="DejaVuSans-72" d="M 2631 2963 
Q 2534 3019 2420 3045 
Q 2306 3072 2169 3072 
Q 1681 3072 1420 2755 
Q 1159 2438 1159 1844 
L 1159 0 
L 581 0 
L 581 3500 
L 1159 3500 
L 1159 2956 
Q 1341 3275 1631 3429 
Q 1922 3584 2338 3584 
Q 2397 3584 2469 3576 
Q 2541 3569 2628 3553 
L 2631 2963 
z
" transform="scale(0.015625)"/>
       <path id="DejaVuSans-65" d="M 3597 1894 
L 3597 1613 
L 953 1613 
Q 991 1019 1311 708 
Q 1631 397 2203 397 
Q 2534 397 2845 478 
Q 3156 559 3463 722 
L 3463 178 
Q 3153 47 2828 -22 
Q 2503 -91 2169 -91 
Q 1331 -91 842 396 
Q 353 884 353 1716 
Q 353 2575 817 3079 
Q 1281 3584 2069 3584 
Q 2775 3584 3186 3129 
Q 3597 2675 3597 1894 
z
M 3022 2063 
Q 3016 2534 2758 2815 
Q 2500 3097 2075 3097 
Q 1594 3097 1305 2825 
Q 1016 2553 972 2059 
L 3022 2063 
z
" transform="scale(0.015625)"/>
       <path id="DejaVuSans-20" transform="scale(0.015625)"/>
       <path id="DejaVuSans-73" d="M 2834 3397 
L 2834 2853 
Q 2591 2978 2328 3040 
Q 2066 3103 1784 3103 
Q 1356 3103 1142 2972 
Q 928 2841 928 2578 
Q 928 2378 1081 2264 
Q 1234 2150 1697 2047 
L 1894 2003 
Q 2506 1872 2764 1633 
Q 3022 1394 3022 966 
Q 3022 478 2636 193 
Q 2250 -91 1575 -91 
Q 1294 -91 989 -36 
Q 684 19 347 128 
L 347 722 
Q 666 556 975 473 
Q 1284 391 1588 391 
Q 1994 391 2212 530 
Q 2431 669 2431 922 
Q 2431 1156 2273 1281 
Q 2116 1406 1581 1522 
L 1381 1569 
Q 847 1681 609 1914 
Q 372 2147 372 2553 
Q 372 3047 722 3315 
Q 1072 3584 1716 3584 
Q 2034 3584 2315 3537 
Q 2597 3491 2834 3397 
z
" transform="scale(0.015625)"/>
       <path id="DejaVuSans-68" d="M 3513 2113 
L 3513 0 
L 2938 0 
L 2938 2094 
Q 2938 2591 2744 2837 
Q 2550 3084 2163 3084 
Q 1697 3084 1428 2787 
Q 1159 2491 1159 1978 
L 1159 0 
L 581 0 
L 581 4863 
L 1159 4863 
L 1159 2956 
Q 1366 3272 1645 3428 
Q 1925 3584 2291 3584 
Q 2894 3584 3203 3211 
Q 3513 2838 3513 2113 
z
" transform="scale(0.015625)"/>
       <path id="DejaVuSans-69" d="M 603 3500 
L 1178 3500 
L 1178 0 
L 603 0 
L 603 3500 
z
M 603 4863 
L 1178 4863 
L 1178 4134 
L 603 4134 
L 603 4863 
z
" transform="scale(0.015625)"/>
       <path id="DejaVuSans-66" d="M 2375 4863 
L 2375 4384 
L 1825 4384 
Q 1516 4384 1395 4259 
Q 1275 4134 1275 3809 
L 1275 3500 
L 2222 3500 
L 2222 3053 
L 1275 3053 
L 1275 0 
L 697 0 
L 697 3053 
L 147 3053 
L 147 3500 
L 697 3500 
L 697 3744 
Q 697 4328 969 4595 
Q 1241 4863 1831 4863 
L 2375 4863 
z
" transform="scale(0.015625)"/>
       <path id="DejaVuSans-74" d="M 1172 4494 
L 1172 3500 
L 2356 3500 
L 2356 3053 
L 1172 3053 
L 1172 1153 
Q 1172 725 1289 603 
Q 1406 481 1766 481 
L 2356 481 
L 2356 0 
L 1766 0 
Q 1100 0 847 248 
Q 594 497 594 1153 
L 594 3053 
L 172 3053 
L 172 3500 
L 594 3500 
L 594 4494 
L 1172 4494 
z
" transform="scale(0.015625)"/>
       <path id="DejaVuSans-Oblique-3b4" d="M 3472 4053 
Q 3197 4272 2450 4272 
Q 1659 4272 1588 3906 
Q 1531 3619 2328 3469 
Q 2953 3353 3253 3003 
Q 3616 2581 3447 1716 
Q 3284 888 2763 400 
Q 2238 -91 1488 -91 
Q 741 -91 406 400 
Q 72 888 241 1747 
Q 363 2384 891 2900 
Q 1097 3100 1353 3213 
Q 913 3459 1000 3900 
Q 1166 4750 2544 4750 
Q 3234 4750 3566 4531 
L 3472 4053 
z
M 1753 3056 
Q 1525 2966 1306 2738 
Q 969 2384 847 1747 
Q 722 1113 919 756 
Q 1119 397 1584 397 
Q 2044 397 2381 759 
Q 2722 1122 2838 1716 
Q 2956 2338 2731 2638 
Q 2491 2959 2103 2994 
Q 1906 3013 1753 3056 
z
" transform="scale(0.015625)"/>
       <path id="DejaVuSans-3a6" d="M 2206 3644 
Q 1738 3578 1431 3306 
Q 1025 2947 1025 2328 
Q 1025 1713 1431 1353 
Q 1738 1081 2206 1016 
L 2206 3644 
z
M 2838 1016 
Q 3306 1081 3613 1353 
Q 4013 1713 4013 2328 
Q 4013 2947 3613 3306 
Q 3306 3578 2838 3644 
L 2838 1016 
z
M 2206 494 
Q 1444 563 950 981 
Q 359 1481 359 2328 
Q 359 3175 950 3678 
Q 1441 4100 2206 4169 
L 2206 4666 
L 2838 4666 
L 2838 4169 
Q 3600 4097 4091 3678 
Q 4678 3175 4678 2328 
Q 4678 1484 4091 981 
Q 3600 563 2838 491 
L 2838 0 
L 2206 0 
L 2206 494 
z
" transform="scale(0.015625)"/>
       <path id="DejaVuSans-Oblique-3c4" d="M 2103 638 
Q 2188 488 2525 488 
L 2800 488 
L 2706 0 
L 2363 0 
Q 1800 0 1600 300 
Q 1403 606 1534 1269 
L 1856 2925 
L 541 2925 
L 653 3500 
L 3881 3500 
L 3769 2925 
L 2444 2925 
L 2113 1234 
Q 2025 781 2103 638 
z
" transform="scale(0.015625)"/>
       <path id="DejaVuSans-28" d="M 1984 4856 
Q 1566 4138 1362 3434 
Q 1159 2731 1159 2009 
Q 1159 1288 1364 580 
Q 1569 -128 1984 -844 
L 1484 -844 
Q 1016 -109 783 600 
Q 550 1309 550 2009 
Q 550 2706 781 3412 
Q 1013 4119 1484 4856 
L 1984 4856 
z
" transform="scale(0.015625)"/>
       <path id="DejaVuSans-25" d="M 4653 2053 
Q 4381 2053 4226 1822 
Q 4072 1591 4072 1178 
Q 4072 772 4226 539 
Q 4381 306 4653 306 
Q 4919 306 5073 539 
Q 5228 772 5228 1178 
Q 5228 1588 5073 1820 
Q 4919 2053 4653 2053 
z
M 4653 2450 
Q 5147 2450 5437 2106 
Q 5728 1763 5728 1178 
Q 5728 594 5436 251 
Q 5144 -91 4653 -91 
Q 4153 -91 3862 251 
Q 3572 594 3572 1178 
Q 3572 1766 3864 2108 
Q 4156 2450 4653 2450 
z
M 1428 4353 
Q 1159 4353 1004 4120 
Q 850 3888 850 3481 
Q 850 3069 1003 2837 
Q 1156 2606 1428 2606 
Q 1700 2606 1854 2837 
Q 2009 3069 2009 3481 
Q 2009 3884 1853 4118 
Q 1697 4353 1428 4353 
z
M 4250 4750 
L 4750 4750 
L 1831 -91 
L 1331 -91 
L 4250 4750 
z
M 1428 4750 
Q 1922 4750 2215 4408 
Q 2509 4066 2509 3481 
Q 2509 2891 2217 2550 
Q 1925 2209 1428 2209 
Q 931 2209 642 2551 
Q 353 2894 353 3481 
Q 353 4063 643 4406 
Q 934 4750 1428 4750 
z
" transform="scale(0.015625)"/>
       <path id="DejaVuSans-29" d="M 513 4856 
L 1013 4856 
Q 1481 4119 1714 3412 
Q 1947 2706 1947 2009 
Q 1947 1309 1714 600 
Q 1481 -109 1013 -844 
L 513 -844 
Q 928 -128 1133 580 
Q 1338 1288 1338 2009 
Q 1338 2731 1133 3434 
Q 928 4138 513 4856 
z
" transform="scale(0.015625)"/>
      </defs>
      <use xlink:href="#DejaVuSans-53" transform="translate(0 0.015625)"/>
      <use xlink:href="#DejaVuSans-63" transform="translate(63.476562 0.015625)"/>
      <use xlink:href="#DejaVuSans-6f" transform="translate(118.457031 0.015625)"/>
      <use xlink:href="#DejaVuSans-72" transform="translate(179.638672 0.015625)"/>
      <use xlink:href="#DejaVuSans-65" transform="translate(220.751953 0.015625)"/>
      <use xlink:href="#DejaVuSans-20" transform="translate(282.275391 0.015625)"/>
      <use xlink:href="#DejaVuSans-73" transform="translate(314.0625 0.015625)"/>
      <use xlink:href="#DejaVuSans-68" transform="translate(366.162109 0.015625)"/>
      <use xlink:href="#DejaVuSans-69" transform="translate(429.541016 0.015625)"/>
      <use xlink:href="#DejaVuSans-66" transform="translate(457.324219 0.015625)"/>
      <use xlink:href="#DejaVuSans-74" transform="translate(492.529297 0.015625)"/>
      <use xlink:href="#DejaVuSans-20" transform="translate(531.738281 0.015625)"/>
      <use xlink:href="#DejaVuSans-Oblique-3b4" transform="translate(563.525391 0.015625)"/>
      <use xlink:href="#DejaVuSans-3a6" transform="translate(624.707031 0.015625)"/>
      <use xlink:href="#DejaVuSans-Oblique-3c4" transform="translate(704.375 -16.390625)scale(0.7)"/>
      <use xlink:href="#DejaVuSans-20" transform="translate(749.25293 0.015625)"/>
      <use xlink:href="#DejaVuSans-28" transform="translate(781.040039 0.015625)"/>
      <use xlink:href="#DejaVuSans-25" transform="translate(820.053711 0.015625)"/>
      <use xlink:href="#DejaVuSans-29" transform="translate(915.073242 0.015625)"/>
     </g>
    </g>
   </g>
   <g id="matplotlib.axis_2">
    <g id="ytick_1">
     <g id="line2d_8">
      <defs>
       <path id="m563ad0518c" d="M 0 0 
L -3.5 0 
" style="stroke: #000000; stroke-width: 0.8"/>
      </defs>
      <g>
       <use xlink:href="#m563ad0518c" x="58.97125" y="584.451143" style="stroke: #000000; stroke-width: 0.8"/>
      </g>
     </g>
     <g id="text_9">
      <!-- 35 -->
      <g transform="translate(34.15625 589.77005)scale(0.14 -0.14)">
       <defs>
        <path id="DejaVuSans-33" d="M 2597 2516 
Q 3050 2419 3304 2112 
Q 3559 1806 3559 1356 
Q 3559 666 3084 287 
Q 2609 -91 1734 -91 
Q 1441 -91 1130 -33 
Q 819 25 488 141 
L 488 750 
Q 750 597 1062 519 
Q 1375 441 1716 441 
Q 2309 441 2620 675 
Q 2931 909 2931 1356 
Q 2931 1769 2642 2001 
Q 2353 2234 1838 2234 
L 1294 2234 
L 1294 2753 
L 1863 2753 
Q 2328 2753 2575 2939 
Q 2822 3125 2822 3475 
Q 2822 3834 2567 4026 
Q 2313 4219 1838 4219 
Q 1578 4219 1281 4162 
Q 984 4106 628 3988 
L 628 4550 
Q 988 4650 1302 4700 
Q 1616 4750 1894 4750 
Q 2613 4750 3031 4423 
Q 3450 4097 3450 3541 
Q 3450 3153 3228 2886 
Q 3006 2619 2597 2516 
z
" transform="scale(0.015625)"/>
        <path id="DejaVuSans-35" d="M 691 4666 
L 3169 4666 
L 3169 4134 
L 1269 4134 
L 1269 2991 
Q 1406 3038 1543 3061 
Q 1681 3084 1819 3084 
Q 2600 3084 3056 2656 
Q 3513 2228 3513 1497 
Q 3513 744 3044 326 
Q 2575 -91 1722 -91 
Q 1428 -91 1123 -41 
Q 819 9 494 109 
L 494 744 
Q 775 591 1075 516 
Q 1375 441 1709 441 
Q 2250 441 2565 725 
Q 2881 1009 2881 1497 
Q 2881 1984 2565 2268 
Q 2250 2553 1709 2553 
Q 1456 2553 1204 2497 
Q 953 2441 691 2322 
L 691 4666 
z
" transform="scale(0.015625)"/>
       </defs>
       <use xlink:href="#DejaVuSans-33"/>
       <use xlink:href="#DejaVuSans-35" x="63.623047"/>
      </g>
     </g>
    </g>
    <g id="ytick_2">
     <g id="line2d_9">
      <g>
       <use xlink:href="#m563ad0518c" x="58.97125" y="508.738543" style="stroke: #000000; stroke-width: 0.8"/>
      </g>
     </g>
     <g id="text_10">
      <!-- 30 -->
      <g transform="translate(34.15625 514.057449)scale(0.14 -0.14)">
       <use xlink:href="#DejaVuSans-33"/>
       <use xlink:href="#DejaVuSans-30" x="63.623047"/>
      </g>
     </g>
    </g>
    <g id="ytick_3">
     <g id="line2d_10">
      <g>
       <use xlink:href="#m563ad0518c" x="58.97125" y="433.025942" style="stroke: #000000; stroke-width: 0.8"/>
      </g>
     </g>
     <g id="text_11">
      <!-- 25 -->
      <g transform="translate(34.15625 438.344848)scale(0.14 -0.14)">
       <use xlink:href="#DejaVuSans-32"/>
       <use xlink:href="#DejaVuSans-35" x="63.623047"/>
      </g>
     </g>
    </g>
    <g id="ytick_4">
     <g id="line2d_11">
      <g>
       <use xlink:href="#m563ad0518c" x="58.97125" y="357.313342" style="stroke: #000000; stroke-width: 0.8"/>
      </g>
     </g>
     <g id="text_12">
      <!-- 20 -->
      <g transform="translate(34.15625 362.632248)scale(0.14 -0.14)">
       <use xlink:href="#DejaVuSans-32"/>
       <use xlink:href="#DejaVuSans-30" x="63.623047"/>
      </g>
     </g>
    </g>
    <g id="ytick_5">
     <g id="line2d_12">
      <g>
       <use xlink:href="#m563ad0518c" x="58.97125" y="281.600741" style="stroke: #000000; stroke-width: 0.8"/>
      </g>
     </g>
     <g id="text_13">
      <!-- 15 -->
      <g transform="translate(34.15625 286.919647)scale(0.14 -0.14)">
       <defs>
        <path id="DejaVuSans-31" d="M 794 531 
L 1825 531 
L 1825 4091 
L 703 3866 
L 703 4441 
L 1819 4666 
L 2450 4666 
L 2450 531 
L 3481 531 
L 3481 0 
L 794 0 
L 794 531 
z
" transform="scale(0.015625)"/>
       </defs>
       <use xlink:href="#DejaVuSans-31"/>
       <use xlink:href="#DejaVuSans-35" x="63.623047"/>
      </g>
     </g>
    </g>
    <g id="ytick_6">
     <g id="line2d_13">
      <g>
       <use xlink:href="#m563ad0518c" x="58.97125" y="205.88814" style="stroke: #000000; stroke-width: 0.8"/>
      </g>
     </g>
     <g id="text_14">
      <!-- 10 -->
      <g transform="translate(34.15625 211.207047)scale(0.14 -0.14)">
       <use xlink:href="#DejaVuSans-31"/>
       <use xlink:href="#DejaVuSans-30" x="63.623047"/>
      </g>
     </g>
    </g>
    <g id="ytick_7">
     <g id="line2d_14">
      <g>
       <use xlink:href="#m563ad0518c" x="58.97125" y="130.17554" style="stroke: #000000; stroke-width: 0.8"/>
      </g>
     </g>
     <g id="text_15">
      <!-- 5 -->
      <g transform="translate(43.06375 135.494446)scale(0.14 -0.14)">
       <use xlink:href="#DejaVuSans-35"/>
      </g>
     </g>
    </g>
    <g id="ytick_8">
     <g id="line2d_15">
      <g>
       <use xlink:href="#m563ad0518c" x="58.97125" y="69.605459" style="stroke: #000000; stroke-width: 0.8"/>
      </g>
     </g>
     <g id="text_16">
      <!-- 1 -->
      <g transform="translate(43.06375 74.924366)scale(0.14 -0.14)">
       <use xlink:href="#DejaVuSans-31"/>
      </g>
     </g>
    </g>
    <g id="text_17">
     <!-- Rank -->
     <g transform="translate(25.996875 336.865469)rotate(-90)scale(0.2 -0.2)">
      <defs>
       <path id="DejaVuSans-52" d="M 2841 2188 
Q 3044 2119 3236 1894 
Q 3428 1669 3622 1275 
L 4263 0 
L 3584 0 
L 2988 1197 
Q 2756 1666 2539 1819 
Q 2322 1972 1947 1972 
L 1259 1972 
L 1259 0 
L 628 0 
L 628 4666 
L 2053 4666 
Q 2853 4666 3247 4331 
Q 3641 3997 3641 3322 
Q 3641 2881 3436 2590 
Q 3231 2300 2841 2188 
z
M 1259 4147 
L 1259 2491 
L 2053 2491 
Q 2509 2491 2742 2702 
Q 2975 2913 2975 3322 
Q 2975 3731 2742 3939 
Q 2509 4147 2053 4147 
L 1259 4147 
z
" transform="scale(0.015625)"/>
       <path id="DejaVuSans-61" d="M 2194 1759 
Q 1497 1759 1228 1600 
Q 959 1441 959 1056 
Q 959 750 1161 570 
Q 1363 391 1709 391 
Q 2188 391 2477 730 
Q 2766 1069 2766 1631 
L 2766 1759 
L 2194 1759 
z
M 3341 1997 
L 3341 0 
L 2766 0 
L 2766 531 
Q 2569 213 2275 61 
Q 1981 -91 1556 -91 
Q 1019 -91 701 211 
Q 384 513 384 1019 
Q 384 1609 779 1909 
Q 1175 2209 1959 2209 
L 2766 2209 
L 2766 2266 
Q 2766 2663 2505 2880 
Q 2244 3097 1772 3097 
Q 1472 3097 1187 3025 
Q 903 2953 641 2809 
L 641 3341 
Q 956 3463 1253 3523 
Q 1550 3584 1831 3584 
Q 2591 3584 2966 3190 
Q 3341 2797 3341 1997 
z
" transform="scale(0.015625)"/>
       <path id="DejaVuSans-6e" d="M 3513 2113 
L 3513 0 
L 2938 0 
L 2938 2094 
Q 2938 2591 2744 2837 
Q 2550 3084 2163 3084 
Q 1697 3084 1428 2787 
Q 1159 2491 1159 1978 
L 1159 0 
L 581 0 
L 581 3500 
L 1159 3500 
L 1159 2956 
Q 1366 3272 1645 3428 
Q 1925 3584 2291 3584 
Q 2894 3584 3203 3211 
Q 3513 2838 3513 2113 
z
" transform="scale(0.015625)"/>
       <path id="DejaVuSans-6b" d="M 581 4863 
L 1159 4863 
L 1159 1991 
L 2875 3500 
L 3609 3500 
L 1753 1863 
L 3688 0 
L 2938 0 
L 1159 1709 
L 1159 0 
L 581 0 
L 581 4863 
z
" transform="scale(0.015625)"/>
      </defs>
      <use xlink:href="#DejaVuSans-52"/>
      <use xlink:href="#DejaVuSans-61" x="67.232422"/>
      <use xlink:href="#DejaVuSans-6e" x="128.511719"/>
      <use xlink:href="#DejaVuSans-6b" x="191.890625"/>
     </g>
    </g>
   </g>
   <g id="patch_5">
    <path d="M 58.97125 593.294375 
L 58.97125 30.477188 
" style="fill: none; stroke: #000000; stroke-width: 0.8; stroke-linejoin: miter; stroke-linecap: square"/>
   </g>
   <g id="patch_6">
    <path d="M 745.2 593.294375 
L 745.2 30.477188 
" style="fill: none; stroke: #000000; stroke-width: 0.8; stroke-linejoin: miter; stroke-linecap: square"/>
   </g>
   <g id="patch_7">
    <path d="M 58.97125 593.294375 
L 745.2 593.294375 
" style="fill: none; stroke: #000000; stroke-width: 0.8; stroke-linejoin: miter; stroke-linecap: square"/>
   </g>
   <g id="patch_8">
    <path d="M 58.97125 30.477187 
L 745.2 30.477187 
" style="fill: none; stroke: #000000; stroke-width: 0.8; stroke-linejoin: miter; stroke-linecap: square"/>
   </g>
   <g id="text_18">
    <!-- Proportion shift of Reasoning -->
    <g transform="translate(272.246562 24.477187)scale(0.18 -0.18)">
     <defs>
      <path id="DejaVuSans-50" d="M 1259 4147 
L 1259 2394 
L 2053 2394 
Q 2494 2394 2734 2622 
Q 2975 2850 2975 3272 
Q 2975 3691 2734 3919 
Q 2494 4147 2053 4147 
L 1259 4147 
z
M 628 4666 
L 2053 4666 
Q 2838 4666 3239 4311 
Q 3641 3956 3641 3272 
Q 3641 2581 3239 2228 
Q 2838 1875 2053 1875 
L 1259 1875 
L 1259 0 
L 628 0 
L 628 4666 
z
" transform="scale(0.015625)"/>
      <path id="DejaVuSans-70" d="M 1159 525 
L 1159 -1331 
L 581 -1331 
L 581 3500 
L 1159 3500 
L 1159 2969 
Q 1341 3281 1617 3432 
Q 1894 3584 2278 3584 
Q 2916 3584 3314 3078 
Q 3713 2572 3713 1747 
Q 3713 922 3314 415 
Q 2916 -91 2278 -91 
Q 1894 -91 1617 61 
Q 1341 213 1159 525 
z
M 3116 1747 
Q 3116 2381 2855 2742 
Q 2594 3103 2138 3103 
Q 1681 3103 1420 2742 
Q 1159 2381 1159 1747 
Q 1159 1113 1420 752 
Q 1681 391 2138 391 
Q 2594 391 2855 752 
Q 3116 1113 3116 1747 
z
" transform="scale(0.015625)"/>
      <path id="DejaVuSans-67" d="M 2906 1791 
Q 2906 2416 2648 2759 
Q 2391 3103 1925 3103 
Q 1463 3103 1205 2759 
Q 947 2416 947 1791 
Q 947 1169 1205 825 
Q 1463 481 1925 481 
Q 2391 481 2648 825 
Q 2906 1169 2906 1791 
z
M 3481 434 
Q 3481 -459 3084 -895 
Q 2688 -1331 1869 -1331 
Q 1566 -1331 1297 -1286 
Q 1028 -1241 775 -1147 
L 775 -588 
Q 1028 -725 1275 -790 
Q 1522 -856 1778 -856 
Q 2344 -856 2625 -561 
Q 2906 -266 2906 331 
L 2906 616 
Q 2728 306 2450 153 
Q 2172 0 1784 0 
Q 1141 0 747 490 
Q 353 981 353 1791 
Q 353 2603 747 3093 
Q 1141 3584 1784 3584 
Q 2172 3584 2450 3431 
Q 2728 3278 2906 2969 
L 2906 3500 
L 3481 3500 
L 3481 434 
z
" transform="scale(0.015625)"/>
     </defs>
     <use xlink:href="#DejaVuSans-50"/>
     <use xlink:href="#DejaVuSans-72" x="58.552734"/>
     <use xlink:href="#DejaVuSans-6f" x="97.416016"/>
     <use xlink:href="#DejaVuSans-70" x="158.597656"/>
     <use xlink:href="#DejaVuSans-6f" x="222.074219"/>
     <use xlink:href="#DejaVuSans-72" x="283.255859"/>
     <use xlink:href="#DejaVuSans-74" x="324.369141"/>
     <use xlink:href="#DejaVuSans-69" x="363.578125"/>
     <use xlink:href="#DejaVuSans-6f" x="391.361328"/>
     <use xlink:href="#DejaVuSans-6e" x="452.542969"/>
     <use xlink:href="#DejaVuSans-20" x="515.921875"/>
     <use xlink:href="#DejaVuSans-73" x="547.708984"/>
     <use xlink:href="#DejaVuSans-68" x="599.808594"/>
     <use xlink:href="#DejaVuSans-69" x="663.1875"/>
     <use xlink:href="#DejaVuSans-66" x="690.970703"/>
     <use xlink:href="#DejaVuSans-74" x="724.425781"/>
     <use xlink:href="#DejaVuSans-20" x="763.634766"/>
     <use xlink:href="#DejaVuSans-6f" x="795.421875"/>
     <use xlink:href="#DejaVuSans-66" x="856.603516"/>
     <use xlink:href="#DejaVuSans-20" x="891.808594"/>
     <use xlink:href="#DejaVuSans-52" x="923.595703"/>
     <use xlink:href="#DejaVuSans-65" x="988.578125"/>
     <use xlink:href="#DejaVuSans-61" x="1050.101562"/>
     <use xlink:href="#DejaVuSans-73" x="1111.380859"/>
     <use xlink:href="#DejaVuSans-6f" x="1163.480469"/>
     <use xlink:href="#DejaVuSans-6e" x="1224.662109"/>
     <use xlink:href="#DejaVuSans-69" x="1288.041016"/>
     <use xlink:href="#DejaVuSans-6e" x="1315.824219"/>
     <use xlink:href="#DejaVuSans-67" x="1379.203125"/>
    </g>
   </g>
   <g id="text_19">
    <!-- left_me_in_awe -->
    <g transform="translate(428.537799 587.85755)scale(0.13 -0.13)">
     <defs>
      <path id="DejaVuSans-6c" d="M 603 4863 
L 1178 4863 
L 1178 0 
L 603 0 
L 603 4863 
z
" transform="scale(0.015625)"/>
      <path id="DejaVuSans-5f" d="M 3263 -1063 
L 3263 -1509 
L -63 -1509 
L -63 -1063 
L 3263 -1063 
z
" transform="scale(0.015625)"/>
      <path id="DejaVuSans-6d" d="M 3328 2828 
Q 3544 3216 3844 3400 
Q 4144 3584 4550 3584 
Q 5097 3584 5394 3201 
Q 5691 2819 5691 2113 
L 5691 0 
L 5113 0 
L 5113 2094 
Q 5113 2597 4934 2840 
Q 4756 3084 4391 3084 
Q 3944 3084 3684 2787 
Q 3425 2491 3425 1978 
L 3425 0 
L 2847 0 
L 2847 2094 
Q 2847 2600 2669 2842 
Q 2491 3084 2119 3084 
Q 1678 3084 1418 2786 
Q 1159 2488 1159 1978 
L 1159 0 
L 581 0 
L 581 3500 
L 1159 3500 
L 1159 2956 
Q 1356 3278 1631 3431 
Q 1906 3584 2284 3584 
Q 2666 3584 2933 3390 
Q 3200 3197 3328 2828 
z
" transform="scale(0.015625)"/>
      <path id="DejaVuSans-77" d="M 269 3500 
L 844 3500 
L 1563 769 
L 2278 3500 
L 2956 3500 
L 3675 769 
L 4391 3500 
L 4966 3500 
L 4050 0 
L 3372 0 
L 2619 2869 
L 1863 0 
L 1184 0 
L 269 3500 
z
" transform="scale(0.015625)"/>
     </defs>
     <use xlink:href="#DejaVuSans-6c"/>
     <use xlink:href="#DejaVuSans-65" x="27.783203"/>
     <use xlink:href="#DejaVuSans-66" x="89.306641"/>
     <use xlink:href="#DejaVuSans-74" x="122.761719"/>
     <use xlink:href="#DejaVuSans-5f" x="161.970703"/>
     <use xlink:href="#DejaVuSans-6d" x="211.970703"/>
     <use xlink:href="#DejaVuSans-65" x="309.382812"/>
     <use xlink:href="#DejaVuSans-5f" x="370.90625"/>
     <use xlink:href="#DejaVuSans-69" x="420.90625"/>
     <use xlink:href="#DejaVuSans-6e" x="448.689453"/>
     <use xlink:href="#DejaVuSans-5f" x="512.068359"/>
     <use xlink:href="#DejaVuSans-61" x="562.068359"/>
     <use xlink:href="#DejaVuSans-77" x="623.347656"/>
     <use xlink:href="#DejaVuSans-65" x="705.134766"/>
    </g>
   </g>
   <g id="text_20">
    <!-- closer -->
    <g transform="translate(429.960128 572.895811)scale(0.13 -0.13)">
     <use xlink:href="#DejaVuSans-63"/>
     <use xlink:href="#DejaVuSans-6c" x="54.980469"/>
     <use xlink:href="#DejaVuSans-6f" x="82.763672"/>
     <use xlink:href="#DejaVuSans-73" x="143.945312"/>
     <use xlink:href="#DejaVuSans-65" x="196.044922"/>
     <use xlink:href="#DejaVuSans-72" x="257.568359"/>
    </g>
   </g>
   <g id="text_21">
    <!-- the -->
    <g transform="translate(432.010369 557.753291)scale(0.13 -0.13)">
     <use xlink:href="#DejaVuSans-74"/>
     <use xlink:href="#DejaVuSans-68" x="39.208984"/>
     <use xlink:href="#DejaVuSans-65" x="102.587891"/>
    </g>
   </g>
   <g id="text_22">
    <!-- expectations_or_anticipations -->
    <g transform="translate(432.583756 542.429989)scale(0.13 -0.13)">
     <defs>
      <path id="DejaVuSans-78" d="M 3513 3500 
L 2247 1797 
L 3578 0 
L 2900 0 
L 1881 1375 
L 863 0 
L 184 0 
L 1544 1831 
L 300 3500 
L 978 3500 
L 1906 2253 
L 2834 3500 
L 3513 3500 
z
" transform="scale(0.015625)"/>
     </defs>
     <use xlink:href="#DejaVuSans-65"/>
     <use xlink:href="#DejaVuSans-78" x="59.773438"/>
     <use xlink:href="#DejaVuSans-70" x="118.953125"/>
     <use xlink:href="#DejaVuSans-65" x="182.429688"/>
     <use xlink:href="#DejaVuSans-63" x="243.953125"/>
     <use xlink:href="#DejaVuSans-74" x="298.933594"/>
     <use xlink:href="#DejaVuSans-61" x="338.142578"/>
     <use xlink:href="#DejaVuSans-74" x="399.421875"/>
     <use xlink:href="#DejaVuSans-69" x="438.630859"/>
     <use xlink:href="#DejaVuSans-6f" x="466.414062"/>
     <use xlink:href="#DejaVuSans-6e" x="527.595703"/>
     <use xlink:href="#DejaVuSans-73" x="590.974609"/>
     <use xlink:href="#DejaVuSans-5f" x="643.074219"/>
     <use xlink:href="#DejaVuSans-6f" x="693.074219"/>
     <use xlink:href="#DejaVuSans-72" x="754.255859"/>
     <use xlink:href="#DejaVuSans-5f" x="795.369141"/>
     <use xlink:href="#DejaVuSans-61" x="845.369141"/>
     <use xlink:href="#DejaVuSans-6e" x="906.648438"/>
     <use xlink:href="#DejaVuSans-74" x="970.027344"/>
     <use xlink:href="#DejaVuSans-69" x="1009.236328"/>
     <use xlink:href="#DejaVuSans-63" x="1037.019531"/>
     <use xlink:href="#DejaVuSans-69" x="1092"/>
     <use xlink:href="#DejaVuSans-70" x="1119.783203"/>
     <use xlink:href="#DejaVuSans-61" x="1183.259766"/>
     <use xlink:href="#DejaVuSans-74" x="1244.539062"/>
     <use xlink:href="#DejaVuSans-69" x="1283.748047"/>
     <use xlink:href="#DejaVuSans-6f" x="1311.53125"/>
     <use xlink:href="#DejaVuSans-6e" x="1372.712891"/>
     <use xlink:href="#DejaVuSans-73" x="1436.091797"/>
    </g>
   </g>
   <g id="text_23">
    <!-- minor_mode -->
    <g transform="translate(288.811273 527.287469)scale(0.13 -0.13)">
     <defs>
      <path id="DejaVuSans-64" d="M 2906 2969 
L 2906 4863 
L 3481 4863 
L 3481 0 
L 2906 0 
L 2906 525 
Q 2725 213 2448 61 
Q 2172 -91 1784 -91 
Q 1150 -91 751 415 
Q 353 922 353 1747 
Q 353 2572 751 3078 
Q 1150 3584 1784 3584 
Q 2172 3584 2448 3432 
Q 2725 3281 2906 2969 
z
M 947 1747 
Q 947 1113 1208 752 
Q 1469 391 1925 391 
Q 2381 391 2643 752 
Q 2906 1113 2906 1747 
Q 2906 2381 2643 2742 
Q 2381 3103 1925 3103 
Q 1469 3103 1208 2742 
Q 947 2381 947 1747 
z
" transform="scale(0.015625)"/>
     </defs>
     <use xlink:href="#DejaVuSans-6d"/>
     <use xlink:href="#DejaVuSans-69" x="97.412109"/>
     <use xlink:href="#DejaVuSans-6e" x="125.195312"/>
     <use xlink:href="#DejaVuSans-6f" x="188.574219"/>
     <use xlink:href="#DejaVuSans-72" x="249.755859"/>
     <use xlink:href="#DejaVuSans-5f" x="290.869141"/>
     <use xlink:href="#DejaVuSans-6d" x="340.869141"/>
     <use xlink:href="#DejaVuSans-6f" x="438.28125"/>
     <use xlink:href="#DejaVuSans-64" x="499.462891"/>
     <use xlink:href="#DejaVuSans-65" x="562.939453"/>
    </g>
   </g>
   <g id="text_24">
    <!-- energy -->
    <g transform="translate(324.517146 512.32573)scale(0.13 -0.13)">
     <defs>
      <path id="DejaVuSans-79" d="M 2059 -325 
Q 1816 -950 1584 -1140 
Q 1353 -1331 966 -1331 
L 506 -1331 
L 506 -850 
L 844 -850 
Q 1081 -850 1212 -737 
Q 1344 -625 1503 -206 
L 1606 56 
L 191 3500 
L 800 3500 
L 1894 763 
L 2988 3500 
L 3597 3500 
L 2059 -325 
z
" transform="scale(0.015625)"/>
     </defs>
     <use xlink:href="#DejaVuSans-65"/>
     <use xlink:href="#DejaVuSans-6e" x="61.523438"/>
     <use xlink:href="#DejaVuSans-65" x="124.902344"/>
     <use xlink:href="#DejaVuSans-72" x="186.425781"/>
     <use xlink:href="#DejaVuSans-67" x="225.789062"/>
     <use xlink:href="#DejaVuSans-79" x="289.265625"/>
    </g>
   </g>
   <g id="text_25">
    <!-- conveyed -->
    <g transform="translate(436.055153 497.18321)scale(0.13 -0.13)">
     <defs>
      <path id="DejaVuSans-76" d="M 191 3500 
L 800 3500 
L 1894 563 
L 2988 3500 
L 3597 3500 
L 2284 0 
L 1503 0 
L 191 3500 
z
" transform="scale(0.015625)"/>
     </defs>
     <use xlink:href="#DejaVuSans-63"/>
     <use xlink:href="#DejaVuSans-6f" x="54.980469"/>
     <use xlink:href="#DejaVuSans-6e" x="116.162109"/>
     <use xlink:href="#DejaVuSans-76" x="179.541016"/>
     <use xlink:href="#DejaVuSans-65" x="238.720703"/>
     <use xlink:href="#DejaVuSans-79" x="300.244141"/>
     <use xlink:href="#DejaVuSans-65" x="359.423828"/>
     <use xlink:href="#DejaVuSans-64" x="420.947266"/>
    </g>
   </g>
   <g id="text_26">
    <!-- felt -->
    <g transform="translate(436.51187 482.04069)scale(0.13 -0.13)">
     <use xlink:href="#DejaVuSans-66"/>
     <use xlink:href="#DejaVuSans-65" x="35.205078"/>
     <use xlink:href="#DejaVuSans-6c" x="96.728516"/>
     <use xlink:href="#DejaVuSans-74" x="124.511719"/>
    </g>
   </g>
   <g id="text_27">
    <!-- facial_expressions -->
    <g transform="translate(437.070014 466.717389)scale(0.13 -0.13)">
     <use xlink:href="#DejaVuSans-66"/>
     <use xlink:href="#DejaVuSans-61" x="35.205078"/>
     <use xlink:href="#DejaVuSans-63" x="96.484375"/>
     <use xlink:href="#DejaVuSans-69" x="151.464844"/>
     <use xlink:href="#DejaVuSans-61" x="179.248047"/>
     <use xlink:href="#DejaVuSans-6c" x="240.527344"/>
     <use xlink:href="#DejaVuSans-5f" x="268.310547"/>
     <use xlink:href="#DejaVuSans-65" x="318.310547"/>
     <use xlink:href="#DejaVuSans-78" x="378.083984"/>
     <use xlink:href="#DejaVuSans-70" x="437.263672"/>
     <use xlink:href="#DejaVuSans-72" x="500.740234"/>
     <use xlink:href="#DejaVuSans-65" x="539.603516"/>
     <use xlink:href="#DejaVuSans-73" x="601.126953"/>
     <use xlink:href="#DejaVuSans-73" x="653.226562"/>
     <use xlink:href="#DejaVuSans-69" x="705.326172"/>
     <use xlink:href="#DejaVuSans-6f" x="733.109375"/>
     <use xlink:href="#DejaVuSans-6e" x="794.291016"/>
     <use xlink:href="#DejaVuSans-73" x="857.669922"/>
    </g>
   </g>
   <g id="text_28">
    <!-- transmitted -->
    <g transform="translate(437.890227 451.75565)scale(0.13 -0.13)">
     <use xlink:href="#DejaVuSans-74"/>
     <use xlink:href="#DejaVuSans-72" x="39.208984"/>
     <use xlink:href="#DejaVuSans-61" x="80.322266"/>
     <use xlink:href="#DejaVuSans-6e" x="141.601562"/>
     <use xlink:href="#DejaVuSans-73" x="204.980469"/>
     <use xlink:href="#DejaVuSans-6d" x="257.080078"/>
     <use xlink:href="#DejaVuSans-69" x="354.492188"/>
     <use xlink:href="#DejaVuSans-74" x="382.275391"/>
     <use xlink:href="#DejaVuSans-74" x="421.484375"/>
     <use xlink:href="#DejaVuSans-65" x="460.693359"/>
     <use xlink:href="#DejaVuSans-64" x="522.216797"/>
    </g>
   </g>
   <g id="text_29">
    <!-- feel_like_singing -->
    <g transform="translate(438.307077 436.432348)scale(0.13 -0.13)">
     <use xlink:href="#DejaVuSans-66"/>
     <use xlink:href="#DejaVuSans-65" x="35.205078"/>
     <use xlink:href="#DejaVuSans-65" x="96.728516"/>
     <use xlink:href="#DejaVuSans-6c" x="158.251953"/>
     <use xlink:href="#DejaVuSans-5f" x="186.035156"/>
     <use xlink:href="#DejaVuSans-6c" x="236.035156"/>
     <use xlink:href="#DejaVuSans-69" x="263.818359"/>
     <use xlink:href="#DejaVuSans-6b" x="291.601562"/>
     <use xlink:href="#DejaVuSans-65" x="345.886719"/>
     <use xlink:href="#DejaVuSans-5f" x="407.410156"/>
     <use xlink:href="#DejaVuSans-73" x="457.410156"/>
     <use xlink:href="#DejaVuSans-69" x="509.509766"/>
     <use xlink:href="#DejaVuSans-6e" x="537.292969"/>
     <use xlink:href="#DejaVuSans-67" x="600.671875"/>
     <use xlink:href="#DejaVuSans-69" x="664.148438"/>
     <use xlink:href="#DejaVuSans-6e" x="691.931641"/>
     <use xlink:href="#DejaVuSans-67" x="755.310547"/>
    </g>
   </g>
   <g id="text_30">
    <!-- fast -->
    <g transform="translate(339.388299 421.47061)scale(0.13 -0.13)">
     <use xlink:href="#DejaVuSans-66"/>
     <use xlink:href="#DejaVuSans-61" x="35.205078"/>
     <use xlink:href="#DejaVuSans-73" x="96.484375"/>
     <use xlink:href="#DejaVuSans-74" x="148.583984"/>
    </g>
   </g>
   <g id="text_31">
    <!-- feel_pleasure -->
    <g transform="translate(440.501544 406.147308)scale(0.13 -0.13)">
     <defs>
      <path id="DejaVuSans-75" d="M 544 1381 
L 544 3500 
L 1119 3500 
L 1119 1403 
Q 1119 906 1312 657 
Q 1506 409 1894 409 
Q 2359 409 2629 706 
Q 2900 1003 2900 1516 
L 2900 3500 
L 3475 3500 
L 3475 0 
L 2900 0 
L 2900 538 
Q 2691 219 2414 64 
Q 2138 -91 1772 -91 
Q 1169 -91 856 284 
Q 544 659 544 1381 
z
M 1991 3584 
L 1991 3584 
z
" transform="scale(0.015625)"/>
     </defs>
     <use xlink:href="#DejaVuSans-66"/>
     <use xlink:href="#DejaVuSans-65" x="35.205078"/>
     <use xlink:href="#DejaVuSans-65" x="96.728516"/>
     <use xlink:href="#DejaVuSans-6c" x="158.251953"/>
     <use xlink:href="#DejaVuSans-5f" x="186.035156"/>
     <use xlink:href="#DejaVuSans-70" x="236.035156"/>
     <use xlink:href="#DejaVuSans-6c" x="299.511719"/>
     <use xlink:href="#DejaVuSans-65" x="327.294922"/>
     <use xlink:href="#DejaVuSans-61" x="388.818359"/>
     <use xlink:href="#DejaVuSans-73" x="450.097656"/>
     <use xlink:href="#DejaVuSans-75" x="502.197266"/>
     <use xlink:href="#DejaVuSans-72" x="565.576172"/>
     <use xlink:href="#DejaVuSans-65" x="604.439453"/>
    </g>
   </g>
   <g id="text_32">
    <!-- consonance -->
    <g transform="translate(284.388118 391.185569)scale(0.13 -0.13)">
     <use xlink:href="#DejaVuSans-63"/>
     <use xlink:href="#DejaVuSans-6f" x="54.980469"/>
     <use xlink:href="#DejaVuSans-6e" x="116.162109"/>
     <use xlink:href="#DejaVuSans-73" x="179.541016"/>
     <use xlink:href="#DejaVuSans-6f" x="231.640625"/>
     <use xlink:href="#DejaVuSans-6e" x="292.822266"/>
     <use xlink:href="#DejaVuSans-61" x="356.201172"/>
     <use xlink:href="#DejaVuSans-6e" x="417.480469"/>
     <use xlink:href="#DejaVuSans-63" x="480.859375"/>
     <use xlink:href="#DejaVuSans-65" x="535.839844"/>
    </g>
   </g>
   <g id="text_33">
    <!-- high -->
    <g transform="translate(331.804098 376.043049)scale(0.13 -0.13)">
     <use xlink:href="#DejaVuSans-68"/>
     <use xlink:href="#DejaVuSans-69" x="63.378906"/>
     <use xlink:href="#DejaVuSans-67" x="91.162109"/>
     <use xlink:href="#DejaVuSans-68" x="154.638672"/>
    </g>
   </g>
   <g id="text_34">
    <!-- feel -->
    <g transform="translate(444.668276 360.900529)scale(0.13 -0.13)">
     <use xlink:href="#DejaVuSans-66"/>
     <use xlink:href="#DejaVuSans-65" x="35.205078"/>
     <use xlink:href="#DejaVuSans-65" x="96.728516"/>
     <use xlink:href="#DejaVuSans-6c" x="158.251953"/>
    </g>
   </g>
   <g id="text_35">
    <!-- slow -->
    <g transform="translate(324.402497 345.758009)scale(0.13 -0.13)">
     <use xlink:href="#DejaVuSans-73"/>
     <use xlink:href="#DejaVuSans-6c" x="52.099609"/>
     <use xlink:href="#DejaVuSans-6f" x="79.882812"/>
     <use xlink:href="#DejaVuSans-77" x="141.064453"/>
    </g>
   </g>
   <g id="text_36">
    <!-- major_mode -->
    <g transform="translate(272.099938 330.434708)scale(0.13 -0.13)">
     <defs>
      <path id="DejaVuSans-6a" d="M 603 3500 
L 1178 3500 
L 1178 -63 
Q 1178 -731 923 -1031 
Q 669 -1331 103 -1331 
L -116 -1331 
L -116 -844 
L 38 -844 
Q 366 -844 484 -692 
Q 603 -541 603 -63 
L 603 3500 
z
M 603 4863 
L 1178 4863 
L 1178 4134 
L 603 4134 
L 603 4863 
z
" transform="scale(0.015625)"/>
     </defs>
     <use xlink:href="#DejaVuSans-6d"/>
     <use xlink:href="#DejaVuSans-61" x="97.412109"/>
     <use xlink:href="#DejaVuSans-6a" x="158.691406"/>
     <use xlink:href="#DejaVuSans-6f" x="186.474609"/>
     <use xlink:href="#DejaVuSans-72" x="247.65625"/>
     <use xlink:href="#DejaVuSans-5f" x="288.769531"/>
     <use xlink:href="#DejaVuSans-6d" x="338.769531"/>
     <use xlink:href="#DejaVuSans-6f" x="436.181641"/>
     <use xlink:href="#DejaVuSans-64" x="497.363281"/>
     <use xlink:href="#DejaVuSans-65" x="560.839844"/>
    </g>
   </g>
   <g id="text_37">
    <!-- want_to_dance_or_move -->
    <g transform="translate(451.871382 315.292187)scale(0.13 -0.13)">
     <use xlink:href="#DejaVuSans-77"/>
     <use xlink:href="#DejaVuSans-61" x="81.787109"/>
     <use xlink:href="#DejaVuSans-6e" x="143.066406"/>
     <use xlink:href="#DejaVuSans-74" x="206.445312"/>
     <use xlink:href="#DejaVuSans-5f" x="245.654297"/>
     <use xlink:href="#DejaVuSans-74" x="295.654297"/>
     <use xlink:href="#DejaVuSans-6f" x="334.863281"/>
     <use xlink:href="#DejaVuSans-5f" x="396.044922"/>
     <use xlink:href="#DejaVuSans-64" x="446.044922"/>
     <use xlink:href="#DejaVuSans-61" x="509.521484"/>
     <use xlink:href="#DejaVuSans-6e" x="570.800781"/>
     <use xlink:href="#DejaVuSans-63" x="634.179688"/>
     <use xlink:href="#DejaVuSans-65" x="689.160156"/>
     <use xlink:href="#DejaVuSans-5f" x="750.683594"/>
     <use xlink:href="#DejaVuSans-6f" x="800.683594"/>
     <use xlink:href="#DejaVuSans-72" x="861.865234"/>
     <use xlink:href="#DejaVuSans-5f" x="902.978516"/>
     <use xlink:href="#DejaVuSans-6d" x="952.978516"/>
     <use xlink:href="#DejaVuSans-6f" x="1050.390625"/>
     <use xlink:href="#DejaVuSans-76" x="1111.572266"/>
     <use xlink:href="#DejaVuSans-65" x="1170.751953"/>
    </g>
   </g>
   <g id="text_38">
    <!-- high_sound_level -->
    <g transform="translate(239.71396 300.149667)scale(0.13 -0.13)">
     <use xlink:href="#DejaVuSans-68"/>
     <use xlink:href="#DejaVuSans-69" x="63.378906"/>
     <use xlink:href="#DejaVuSans-67" x="91.162109"/>
     <use xlink:href="#DejaVuSans-68" x="154.638672"/>
     <use xlink:href="#DejaVuSans-5f" x="218.017578"/>
     <use xlink:href="#DejaVuSans-73" x="268.017578"/>
     <use xlink:href="#DejaVuSans-6f" x="320.117188"/>
     <use xlink:href="#DejaVuSans-75" x="381.298828"/>
     <use xlink:href="#DejaVuSans-6e" x="444.677734"/>
     <use xlink:href="#DejaVuSans-64" x="508.056641"/>
     <use xlink:href="#DejaVuSans-5f" x="571.533203"/>
     <use xlink:href="#DejaVuSans-6c" x="621.533203"/>
     <use xlink:href="#DejaVuSans-65" x="649.316406"/>
     <use xlink:href="#DejaVuSans-76" x="710.839844"/>
     <use xlink:href="#DejaVuSans-65" x="770.019531"/>
     <use xlink:href="#DejaVuSans-6c" x="831.542969"/>
    </g>
   </g>
   <g id="text_39">
    <!-- music_is_stimulating -->
    <g transform="translate(458.3985 285.007147)scale(0.13 -0.13)">
     <use xlink:href="#DejaVuSans-6d"/>
     <use xlink:href="#DejaVuSans-75" x="97.412109"/>
     <use xlink:href="#DejaVuSans-73" x="160.791016"/>
     <use xlink:href="#DejaVuSans-69" x="212.890625"/>
     <use xlink:href="#DejaVuSans-63" x="240.673828"/>
     <use xlink:href="#DejaVuSans-5f" x="295.654297"/>
     <use xlink:href="#DejaVuSans-69" x="345.654297"/>
     <use xlink:href="#DejaVuSans-73" x="373.4375"/>
     <use xlink:href="#DejaVuSans-5f" x="425.537109"/>
     <use xlink:href="#DejaVuSans-73" x="475.537109"/>
     <use xlink:href="#DejaVuSans-74" x="527.636719"/>
     <use xlink:href="#DejaVuSans-69" x="566.845703"/>
     <use xlink:href="#DejaVuSans-6d" x="594.628906"/>
     <use xlink:href="#DejaVuSans-75" x="692.041016"/>
     <use xlink:href="#DejaVuSans-6c" x="755.419922"/>
     <use xlink:href="#DejaVuSans-61" x="783.203125"/>
     <use xlink:href="#DejaVuSans-74" x="844.482422"/>
     <use xlink:href="#DejaVuSans-69" x="883.691406"/>
     <use xlink:href="#DejaVuSans-6e" x="911.474609"/>
     <use xlink:href="#DejaVuSans-67" x="974.853516"/>
    </g>
   </g>
   <g id="text_40">
    <!-- melody_contour -->
    <g transform="translate(234.647225 269.864627)scale(0.13 -0.13)">
     <use xlink:href="#DejaVuSans-6d"/>
     <use xlink:href="#DejaVuSans-65" x="97.412109"/>
     <use xlink:href="#DejaVuSans-6c" x="158.935547"/>
     <use xlink:href="#DejaVuSans-6f" x="186.71875"/>
     <use xlink:href="#DejaVuSans-64" x="247.900391"/>
     <use xlink:href="#DejaVuSans-79" x="311.376953"/>
     <use xlink:href="#DejaVuSans-5f" x="370.556641"/>
     <use xlink:href="#DejaVuSans-63" x="420.556641"/>
     <use xlink:href="#DejaVuSans-6f" x="475.537109"/>
     <use xlink:href="#DejaVuSans-6e" x="536.71875"/>
     <use xlink:href="#DejaVuSans-74" x="600.097656"/>
     <use xlink:href="#DejaVuSans-6f" x="639.306641"/>
     <use xlink:href="#DejaVuSans-75" x="700.488281"/>
     <use xlink:href="#DejaVuSans-72" x="763.867188"/>
    </g>
   </g>
   <g id="text_41">
    <!-- visualize_a_mental_image -->
    <g transform="translate(478.288241 254.722107)scale(0.13 -0.13)">
     <defs>
      <path id="DejaVuSans-7a" d="M 353 3500 
L 3084 3500 
L 3084 2975 
L 922 459 
L 3084 459 
L 3084 0 
L 275 0 
L 275 525 
L 2438 3041 
L 353 3041 
L 353 3500 
z
" transform="scale(0.015625)"/>
     </defs>
     <use xlink:href="#DejaVuSans-76"/>
     <use xlink:href="#DejaVuSans-69" x="59.179688"/>
     <use xlink:href="#DejaVuSans-73" x="86.962891"/>
     <use xlink:href="#DejaVuSans-75" x="139.0625"/>
     <use xlink:href="#DejaVuSans-61" x="202.441406"/>
     <use xlink:href="#DejaVuSans-6c" x="263.720703"/>
     <use xlink:href="#DejaVuSans-69" x="291.503906"/>
     <use xlink:href="#DejaVuSans-7a" x="319.287109"/>
     <use xlink:href="#DejaVuSans-65" x="371.777344"/>
     <use xlink:href="#DejaVuSans-5f" x="433.300781"/>
     <use xlink:href="#DejaVuSans-61" x="483.300781"/>
     <use xlink:href="#DejaVuSans-5f" x="544.580078"/>
     <use xlink:href="#DejaVuSans-6d" x="594.580078"/>
     <use xlink:href="#DejaVuSans-65" x="691.992188"/>
     <use xlink:href="#DejaVuSans-6e" x="753.515625"/>
     <use xlink:href="#DejaVuSans-74" x="816.894531"/>
     <use xlink:href="#DejaVuSans-61" x="856.103516"/>
     <use xlink:href="#DejaVuSans-6c" x="917.382812"/>
     <use xlink:href="#DejaVuSans-5f" x="945.166016"/>
     <use xlink:href="#DejaVuSans-69" x="995.166016"/>
     <use xlink:href="#DejaVuSans-6d" x="1022.949219"/>
     <use xlink:href="#DejaVuSans-61" x="1120.361328"/>
     <use xlink:href="#DejaVuSans-67" x="1181.640625"/>
     <use xlink:href="#DejaVuSans-65" x="1245.117188"/>
    </g>
   </g>
   <g id="text_42">
    <!-- tempo -->
    <g transform="translate(282.253506 239.760368)scale(0.13 -0.13)">
     <use xlink:href="#DejaVuSans-74"/>
     <use xlink:href="#DejaVuSans-65" x="39.208984"/>
     <use xlink:href="#DejaVuSans-6d" x="100.732422"/>
     <use xlink:href="#DejaVuSans-70" x="198.144531"/>
     <use xlink:href="#DejaVuSans-6f" x="261.621094"/>
    </g>
   </g>
   <g id="text_43">
    <!-- changes_in_sound_level -->
    <g transform="translate(165.912923 224.437067)scale(0.13 -0.13)">
     <use xlink:href="#DejaVuSans-63"/>
     <use xlink:href="#DejaVuSans-68" x="54.980469"/>
     <use xlink:href="#DejaVuSans-61" x="118.359375"/>
     <use xlink:href="#DejaVuSans-6e" x="179.638672"/>
     <use xlink:href="#DejaVuSans-67" x="243.017578"/>
     <use xlink:href="#DejaVuSans-65" x="306.494141"/>
     <use xlink:href="#DejaVuSans-73" x="368.017578"/>
     <use xlink:href="#DejaVuSans-5f" x="420.117188"/>
     <use xlink:href="#DejaVuSans-69" x="470.117188"/>
     <use xlink:href="#DejaVuSans-6e" x="497.900391"/>
     <use xlink:href="#DejaVuSans-5f" x="561.279297"/>
     <use xlink:href="#DejaVuSans-73" x="611.279297"/>
     <use xlink:href="#DejaVuSans-6f" x="663.378906"/>
     <use xlink:href="#DejaVuSans-75" x="724.560547"/>
     <use xlink:href="#DejaVuSans-6e" x="787.939453"/>
     <use xlink:href="#DejaVuSans-64" x="851.318359"/>
     <use xlink:href="#DejaVuSans-5f" x="914.794922"/>
     <use xlink:href="#DejaVuSans-6c" x="964.794922"/>
     <use xlink:href="#DejaVuSans-65" x="992.578125"/>
     <use xlink:href="#DejaVuSans-76" x="1054.101562"/>
     <use xlink:href="#DejaVuSans-65" x="1113.28125"/>
     <use xlink:href="#DejaVuSans-6c" x="1174.804688"/>
    </g>
   </g>
   <g id="text_44">
    <!-- low_sound_level -->
    <g transform="translate(215.711097 209.294547)scale(0.13 -0.13)">
     <use xlink:href="#DejaVuSans-6c"/>
     <use xlink:href="#DejaVuSans-6f" x="27.783203"/>
     <use xlink:href="#DejaVuSans-77" x="88.964844"/>
     <use xlink:href="#DejaVuSans-5f" x="170.751953"/>
     <use xlink:href="#DejaVuSans-73" x="220.751953"/>
     <use xlink:href="#DejaVuSans-6f" x="272.851562"/>
     <use xlink:href="#DejaVuSans-75" x="334.033203"/>
     <use xlink:href="#DejaVuSans-6e" x="397.412109"/>
     <use xlink:href="#DejaVuSans-64" x="460.791016"/>
     <use xlink:href="#DejaVuSans-5f" x="524.267578"/>
     <use xlink:href="#DejaVuSans-6c" x="574.267578"/>
     <use xlink:href="#DejaVuSans-65" x="602.050781"/>
     <use xlink:href="#DejaVuSans-76" x="663.574219"/>
     <use xlink:href="#DejaVuSans-65" x="722.753906"/>
     <use xlink:href="#DejaVuSans-6c" x="784.277344"/>
    </g>
   </g>
   <g id="text_45">
    <!-- memories_of_somebodysomething -->
    <g transform="translate(487.188057 194.152027)scale(0.13 -0.13)">
     <defs>
      <path id="DejaVuSans-62" d="M 3116 1747 
Q 3116 2381 2855 2742 
Q 2594 3103 2138 3103 
Q 1681 3103 1420 2742 
Q 1159 2381 1159 1747 
Q 1159 1113 1420 752 
Q 1681 391 2138 391 
Q 2594 391 2855 752 
Q 3116 1113 3116 1747 
z
M 1159 2969 
Q 1341 3281 1617 3432 
Q 1894 3584 2278 3584 
Q 2916 3584 3314 3078 
Q 3713 2572 3713 1747 
Q 3713 922 3314 415 
Q 2916 -91 2278 -91 
Q 1894 -91 1617 61 
Q 1341 213 1159 525 
L 1159 0 
L 581 0 
L 581 4863 
L 1159 4863 
L 1159 2969 
z
" transform="scale(0.015625)"/>
     </defs>
     <use xlink:href="#DejaVuSans-6d"/>
     <use xlink:href="#DejaVuSans-65" x="97.412109"/>
     <use xlink:href="#DejaVuSans-6d" x="158.935547"/>
     <use xlink:href="#DejaVuSans-6f" x="256.347656"/>
     <use xlink:href="#DejaVuSans-72" x="317.529297"/>
     <use xlink:href="#DejaVuSans-69" x="358.642578"/>
     <use xlink:href="#DejaVuSans-65" x="386.425781"/>
     <use xlink:href="#DejaVuSans-73" x="447.949219"/>
     <use xlink:href="#DejaVuSans-5f" x="500.048828"/>
     <use xlink:href="#DejaVuSans-6f" x="550.048828"/>
     <use xlink:href="#DejaVuSans-66" x="611.230469"/>
     <use xlink:href="#DejaVuSans-5f" x="646.435547"/>
     <use xlink:href="#DejaVuSans-73" x="696.435547"/>
     <use xlink:href="#DejaVuSans-6f" x="748.535156"/>
     <use xlink:href="#DejaVuSans-6d" x="809.716797"/>
     <use xlink:href="#DejaVuSans-65" x="907.128906"/>
     <use xlink:href="#DejaVuSans-62" x="968.652344"/>
     <use xlink:href="#DejaVuSans-6f" x="1032.128906"/>
     <use xlink:href="#DejaVuSans-64" x="1093.310547"/>
     <use xlink:href="#DejaVuSans-79" x="1156.787109"/>
     <use xlink:href="#DejaVuSans-73" x="1215.966797"/>
     <use xlink:href="#DejaVuSans-6f" x="1268.066406"/>
     <use xlink:href="#DejaVuSans-6d" x="1329.248047"/>
     <use xlink:href="#DejaVuSans-65" x="1426.660156"/>
     <use xlink:href="#DejaVuSans-74" x="1488.183594"/>
     <use xlink:href="#DejaVuSans-68" x="1527.392578"/>
     <use xlink:href="#DejaVuSans-69" x="1590.771484"/>
     <use xlink:href="#DejaVuSans-6e" x="1618.554688"/>
     <use xlink:href="#DejaVuSans-67" x="1681.933594"/>
    </g>
   </g>
   <g id="text_46">
    <!-- note_durations -->
    <g transform="translate(216.93572 179.009506)scale(0.13 -0.13)">
     <use xlink:href="#DejaVuSans-6e"/>
     <use xlink:href="#DejaVuSans-6f" x="63.378906"/>
     <use xlink:href="#DejaVuSans-74" x="124.560547"/>
     <use xlink:href="#DejaVuSans-65" x="163.769531"/>
     <use xlink:href="#DejaVuSans-5f" x="225.292969"/>
     <use xlink:href="#DejaVuSans-64" x="275.292969"/>
     <use xlink:href="#DejaVuSans-75" x="338.769531"/>
     <use xlink:href="#DejaVuSans-72" x="402.148438"/>
     <use xlink:href="#DejaVuSans-61" x="443.261719"/>
     <use xlink:href="#DejaVuSans-74" x="504.541016"/>
     <use xlink:href="#DejaVuSans-69" x="543.75"/>
     <use xlink:href="#DejaVuSans-6f" x="571.533203"/>
     <use xlink:href="#DejaVuSans-6e" x="632.714844"/>
     <use xlink:href="#DejaVuSans-73" x="696.09375"/>
    </g>
   </g>
   <g id="text_47">
    <!-- articulation_of_notes -->
    <g transform="translate(173.754488 163.866986)scale(0.13 -0.13)">
     <use xlink:href="#DejaVuSans-61"/>
     <use xlink:href="#DejaVuSans-72" x="61.279297"/>
     <use xlink:href="#DejaVuSans-74" x="102.392578"/>
     <use xlink:href="#DejaVuSans-69" x="141.601562"/>
     <use xlink:href="#DejaVuSans-63" x="169.384766"/>
     <use xlink:href="#DejaVuSans-75" x="224.365234"/>
     <use xlink:href="#DejaVuSans-6c" x="287.744141"/>
     <use xlink:href="#DejaVuSans-61" x="315.527344"/>
     <use xlink:href="#DejaVuSans-74" x="376.806641"/>
     <use xlink:href="#DejaVuSans-69" x="416.015625"/>
     <use xlink:href="#DejaVuSans-6f" x="443.798828"/>
     <use xlink:href="#DejaVuSans-6e" x="504.980469"/>
     <use xlink:href="#DejaVuSans-5f" x="568.359375"/>
     <use xlink:href="#DejaVuSans-6f" x="618.359375"/>
     <use xlink:href="#DejaVuSans-66" x="679.541016"/>
     <use xlink:href="#DejaVuSans-5f" x="714.746094"/>
     <use xlink:href="#DejaVuSans-6e" x="764.746094"/>
     <use xlink:href="#DejaVuSans-6f" x="828.125"/>
     <use xlink:href="#DejaVuSans-74" x="889.306641"/>
     <use xlink:href="#DejaVuSans-65" x="928.515625"/>
     <use xlink:href="#DejaVuSans-73" x="990.039062"/>
    </g>
   </g>
   <g id="text_48">
    <!-- fast_tempo -->
    <g transform="translate(213.637326 148.724466)scale(0.13 -0.13)">
     <use xlink:href="#DejaVuSans-66"/>
     <use xlink:href="#DejaVuSans-61" x="35.205078"/>
     <use xlink:href="#DejaVuSans-73" x="96.484375"/>
     <use xlink:href="#DejaVuSans-74" x="148.583984"/>
     <use xlink:href="#DejaVuSans-5f" x="187.792969"/>
     <use xlink:href="#DejaVuSans-74" x="237.792969"/>
     <use xlink:href="#DejaVuSans-65" x="277.001953"/>
     <use xlink:href="#DejaVuSans-6d" x="338.525391"/>
     <use xlink:href="#DejaVuSans-70" x="435.9375"/>
     <use xlink:href="#DejaVuSans-6f" x="499.414062"/>
    </g>
   </g>
   <g id="text_49">
    <!-- harmony -->
    <g transform="translate(223.637049 133.762727)scale(0.13 -0.13)">
     <use xlink:href="#DejaVuSans-68"/>
     <use xlink:href="#DejaVuSans-61" x="63.378906"/>
     <use xlink:href="#DejaVuSans-72" x="124.658203"/>
     <use xlink:href="#DejaVuSans-6d" x="164.021484"/>
     <use xlink:href="#DejaVuSans-6f" x="261.433594"/>
     <use xlink:href="#DejaVuSans-6e" x="322.615234"/>
     <use xlink:href="#DejaVuSans-79" x="385.994141"/>
    </g>
   </g>
   <g id="text_50">
    <!-- associations_to_a_thought -->
    <g transform="translate(535.686193 118.439426)scale(0.13 -0.13)">
     <use xlink:href="#DejaVuSans-61"/>
     <use xlink:href="#DejaVuSans-73" x="61.279297"/>
     <use xlink:href="#DejaVuSans-73" x="113.378906"/>
     <use xlink:href="#DejaVuSans-6f" x="165.478516"/>
     <use xlink:href="#DejaVuSans-63" x="226.660156"/>
     <use xlink:href="#DejaVuSans-69" x="281.640625"/>
     <use xlink:href="#DejaVuSans-61" x="309.423828"/>
     <use xlink:href="#DejaVuSans-74" x="370.703125"/>
     <use xlink:href="#DejaVuSans-69" x="409.912109"/>
     <use xlink:href="#DejaVuSans-6f" x="437.695312"/>
     <use xlink:href="#DejaVuSans-6e" x="498.876953"/>
     <use xlink:href="#DejaVuSans-73" x="562.255859"/>
     <use xlink:href="#DejaVuSans-5f" x="614.355469"/>
     <use xlink:href="#DejaVuSans-74" x="664.355469"/>
     <use xlink:href="#DejaVuSans-6f" x="703.564453"/>
     <use xlink:href="#DejaVuSans-5f" x="764.746094"/>
     <use xlink:href="#DejaVuSans-61" x="814.746094"/>
     <use xlink:href="#DejaVuSans-5f" x="876.025391"/>
     <use xlink:href="#DejaVuSans-74" x="926.025391"/>
     <use xlink:href="#DejaVuSans-68" x="965.234375"/>
     <use xlink:href="#DejaVuSans-6f" x="1028.613281"/>
     <use xlink:href="#DejaVuSans-75" x="1089.794922"/>
     <use xlink:href="#DejaVuSans-67" x="1153.173828"/>
     <use xlink:href="#DejaVuSans-68" x="1216.650391"/>
     <use xlink:href="#DejaVuSans-74" x="1280.029297"/>
    </g>
   </g>
   <g id="text_51">
    <!-- slow_tempo -->
    <g transform="translate(154.814946 103.296906)scale(0.13 -0.13)">
     <use xlink:href="#DejaVuSans-73"/>
     <use xlink:href="#DejaVuSans-6c" x="52.099609"/>
     <use xlink:href="#DejaVuSans-6f" x="79.882812"/>
     <use xlink:href="#DejaVuSans-77" x="141.064453"/>
     <use xlink:href="#DejaVuSans-5f" x="222.851562"/>
     <use xlink:href="#DejaVuSans-74" x="272.851562"/>
     <use xlink:href="#DejaVuSans-65" x="312.060547"/>
     <use xlink:href="#DejaVuSans-6d" x="373.583984"/>
     <use xlink:href="#DejaVuSans-70" x="470.996094"/>
     <use xlink:href="#DejaVuSans-6f" x="534.472656"/>
    </g>
   </g>
   <g id="text_52">
    <!-- emotion_is_contagious -->
    <g transform="translate(585.497023 88.154386)scale(0.13 -0.13)">
     <use xlink:href="#DejaVuSans-65"/>
     <use xlink:href="#DejaVuSans-6d" x="61.523438"/>
     <use xlink:href="#DejaVuSans-6f" x="158.935547"/>
     <use xlink:href="#DejaVuSans-74" x="220.117188"/>
     <use xlink:href="#DejaVuSans-69" x="259.326172"/>
     <use xlink:href="#DejaVuSans-6f" x="287.109375"/>
     <use xlink:href="#DejaVuSans-6e" x="348.291016"/>
     <use xlink:href="#DejaVuSans-5f" x="411.669922"/>
     <use xlink:href="#DejaVuSans-69" x="461.669922"/>
     <use xlink:href="#DejaVuSans-73" x="489.453125"/>
     <use xlink:href="#DejaVuSans-5f" x="541.552734"/>
     <use xlink:href="#DejaVuSans-63" x="591.552734"/>
     <use xlink:href="#DejaVuSans-6f" x="646.533203"/>
     <use xlink:href="#DejaVuSans-6e" x="707.714844"/>
     <use xlink:href="#DejaVuSans-74" x="771.09375"/>
     <use xlink:href="#DejaVuSans-61" x="810.302734"/>
     <use xlink:href="#DejaVuSans-67" x="871.582031"/>
     <use xlink:href="#DejaVuSans-69" x="935.058594"/>
     <use xlink:href="#DejaVuSans-6f" x="962.841797"/>
     <use xlink:href="#DejaVuSans-75" x="1024.023438"/>
     <use xlink:href="#DejaVuSans-73" x="1087.402344"/>
    </g>
   </g>
   <g id="text_53">
    <!-- lyrics -->
    <g transform="translate(609.141923 73.192647)scale(0.13 -0.13)">
     <use xlink:href="#DejaVuSans-6c"/>
     <use xlink:href="#DejaVuSans-79" x="27.783203"/>
     <use xlink:href="#DejaVuSans-72" x="86.962891"/>
     <use xlink:href="#DejaVuSans-69" x="128.076172"/>
     <use xlink:href="#DejaVuSans-63" x="155.859375"/>
     <use xlink:href="#DejaVuSans-73" x="210.839844"/>
    </g>
   </g>
   <g id="patch_9">
    <path d="M 402.085625 590.508151 
L 422.448499 590.508151 
L 422.448499 578.394135 
L 402.085625 578.394135 
z
" clip-path="url(#p1279481ad9)" style="fill: #fecc5d; stroke: #000000; stroke-width: 0.25; stroke-linejoin: miter"/>
   </g>
   <g id="patch_10">
    <path d="M 402.085625 575.365631 
L 423.870828 575.365631 
L 423.870828 563.251615 
L 402.085625 563.251615 
z
" clip-path="url(#p1279481ad9)" style="fill: #fecc5d; stroke: #000000; stroke-width: 0.25; stroke-linejoin: miter"/>
   </g>
   <g id="patch_11">
    <path d="M 402.085625 560.223111 
L 425.921068 560.223111 
L 425.921068 548.109095 
L 402.085625 548.109095 
z
" clip-path="url(#p1279481ad9)" style="fill: #fecc5d; stroke: #000000; stroke-width: 0.25; stroke-linejoin: miter"/>
   </g>
   <g id="patch_12">
    <path d="M 402.085625 545.080591 
L 426.494456 545.080591 
L 426.494456 532.966575 
L 402.085625 532.966575 
z
" clip-path="url(#p1279481ad9)" style="fill: #fecc5d; stroke: #000000; stroke-width: 0.25; stroke-linejoin: miter"/>
   </g>
   <g id="patch_13">
    <path d="M 402.085625 529.938071 
L 376.081511 529.938071 
L 376.081511 517.824055 
L 402.085625 517.824055 
z
" clip-path="url(#p1279481ad9)" style="fill: #9e75b7; stroke: #000000; stroke-width: 0.25; stroke-linejoin: miter"/>
   </g>
   <g id="patch_14">
    <path d="M 402.085625 514.795551 
L 375.907384 514.795551 
L 375.907384 502.681535 
L 402.085625 502.681535 
z
" clip-path="url(#p1279481ad9)" style="fill: #9e75b7; stroke: #000000; stroke-width: 0.25; stroke-linejoin: miter"/>
   </g>
   <g id="patch_15">
    <path d="M 402.085625 499.653031 
L 429.965853 499.653031 
L 429.965853 487.539015 
L 402.085625 487.539015 
z
" clip-path="url(#p1279481ad9)" style="fill: #fecc5d; stroke: #000000; stroke-width: 0.25; stroke-linejoin: miter"/>
   </g>
   <g id="patch_16">
    <path d="M 402.085625 484.510511 
L 430.42257 484.510511 
L 430.42257 472.396494 
L 402.085625 472.396494 
z
" clip-path="url(#p1279481ad9)" style="fill: #fecc5d; stroke: #000000; stroke-width: 0.25; stroke-linejoin: miter"/>
   </g>
   <g id="patch_17">
    <path d="M 402.085625 469.36799 
L 430.980714 469.36799 
L 430.980714 457.253974 
L 402.085625 457.253974 
z
" clip-path="url(#p1279481ad9)" style="fill: #fecc5d; stroke: #000000; stroke-width: 0.25; stroke-linejoin: miter"/>
   </g>
   <g id="patch_18">
    <path d="M 402.085625 454.22547 
L 431.800927 454.22547 
L 431.800927 442.111454 
L 402.085625 442.111454 
z
" clip-path="url(#p1279481ad9)" style="fill: #fecc5d; stroke: #000000; stroke-width: 0.25; stroke-linejoin: miter"/>
   </g>
   <g id="patch_19">
    <path d="M 402.085625 439.08295 
L 432.217776 439.08295 
L 432.217776 426.968934 
L 402.085625 426.968934 
z
" clip-path="url(#p1279481ad9)" style="fill: #fecc5d; stroke: #000000; stroke-width: 0.25; stroke-linejoin: miter"/>
   </g>
   <g id="patch_20">
    <path d="M 402.085625 423.94043 
L 369.889162 423.94043 
L 369.889162 411.826414 
L 402.085625 411.826414 
z
" clip-path="url(#p1279481ad9)" style="fill: #9e75b7; stroke: #000000; stroke-width: 0.25; stroke-linejoin: miter"/>
   </g>
   <g id="patch_21">
    <path d="M 402.085625 408.79791 
L 434.412244 408.79791 
L 434.412244 396.683894 
L 402.085625 396.683894 
z
" clip-path="url(#p1279481ad9)" style="fill: #fecc5d; stroke: #000000; stroke-width: 0.25; stroke-linejoin: miter"/>
   </g>
   <g id="patch_22">
    <path d="M 402.085625 393.65539 
L 368.136168 393.65539 
L 368.136168 381.541374 
L 402.085625 381.541374 
z
" clip-path="url(#p1279481ad9)" style="fill: #9e75b7; stroke: #000000; stroke-width: 0.25; stroke-linejoin: miter"/>
   </g>
   <g id="patch_23">
    <path d="M 402.085625 378.51287 
L 366.23543 378.51287 
L 366.23543 366.398854 
L 402.085625 366.398854 
z
" clip-path="url(#p1279481ad9)" style="fill: #9e75b7; stroke: #000000; stroke-width: 0.25; stroke-linejoin: miter"/>
   </g>
   <g id="patch_24">
    <path d="M 402.085625 363.37035 
L 438.578976 363.37035 
L 438.578976 351.256334 
L 402.085625 351.256334 
z
" clip-path="url(#p1279481ad9)" style="fill: #fecc5d; stroke: #000000; stroke-width: 0.25; stroke-linejoin: miter"/>
   </g>
   <g id="patch_25">
    <path d="M 402.085625 348.22783 
L 359.461485 348.22783 
L 359.461485 336.113813 
L 402.085625 336.113813 
z
" clip-path="url(#p1279481ad9)" style="fill: #9e75b7; stroke: #000000; stroke-width: 0.25; stroke-linejoin: miter"/>
   </g>
   <g id="patch_26">
    <path d="M 402.085625 333.085309 
L 359.097988 333.085309 
L 359.097988 320.971293 
L 402.085625 320.971293 
z
" clip-path="url(#p1279481ad9)" style="fill: #9e75b7; stroke: #000000; stroke-width: 0.25; stroke-linejoin: miter"/>
   </g>
   <g id="patch_27">
    <path d="M 402.085625 317.942789 
L 445.782081 317.942789 
L 445.782081 305.828773 
L 402.085625 305.828773 
z
" clip-path="url(#p1279481ad9)" style="fill: #fecc5d; stroke: #000000; stroke-width: 0.25; stroke-linejoin: miter"/>
   </g>
   <g id="patch_28">
    <path d="M 402.085625 302.800269 
L 357.517948 302.800269 
L 357.517948 290.686253 
L 402.085625 290.686253 
z
" clip-path="url(#p1279481ad9)" style="fill: #9e75b7; stroke: #000000; stroke-width: 0.25; stroke-linejoin: miter"/>
   </g>
   <g id="patch_29">
    <path d="M 402.085625 287.657749 
L 452.3092 287.657749 
L 452.3092 275.543733 
L 402.085625 275.543733 
z
" clip-path="url(#p1279481ad9)" style="fill: #fecc5d; stroke: #000000; stroke-width: 0.25; stroke-linejoin: miter"/>
   </g>
   <g id="patch_30">
    <path d="M 402.085625 272.515229 
L 345.386525 272.515229 
L 345.386525 260.401213 
L 402.085625 260.401213 
z
" clip-path="url(#p1279481ad9)" style="fill: #9e75b7; stroke: #000000; stroke-width: 0.25; stroke-linejoin: miter"/>
   </g>
   <g id="patch_31">
    <path d="M 402.085625 257.372709 
L 472.198941 257.372709 
L 472.198941 245.258693 
L 402.085625 245.258693 
z
" clip-path="url(#p1279481ad9)" style="fill: #fecc5d; stroke: #000000; stroke-width: 0.25; stroke-linejoin: miter"/>
   </g>
   <g id="patch_32">
    <path d="M 402.085625 242.230189 
L 330.308431 242.230189 
L 330.308431 230.116173 
L 402.085625 230.116173 
z
" clip-path="url(#p1279481ad9)" style="fill: #9e75b7; stroke: #000000; stroke-width: 0.25; stroke-linejoin: miter"/>
   </g>
   <g id="patch_33">
    <path d="M 402.085625 227.087669 
L 328.341442 227.087669 
L 328.341442 214.973653 
L 402.085625 214.973653 
z
" clip-path="url(#p1279481ad9)" style="fill: #9e75b7; stroke: #000000; stroke-width: 0.25; stroke-linejoin: miter"/>
   </g>
   <g id="patch_34">
    <path d="M 402.085625 211.945149 
L 327.370553 211.945149 
L 327.370553 199.831132 
L 402.085625 199.831132 
z
" clip-path="url(#p1279481ad9)" style="fill: #9e75b7; stroke: #000000; stroke-width: 0.25; stroke-linejoin: miter"/>
   </g>
   <g id="patch_35">
    <path d="M 402.085625 196.802628 
L 481.098757 196.802628 
L 481.098757 184.688612 
L 402.085625 184.688612 
z
" clip-path="url(#p1279481ad9)" style="fill: #fecc5d; stroke: #000000; stroke-width: 0.25; stroke-linejoin: miter"/>
   </g>
   <g id="patch_36">
    <path d="M 402.085625 181.660108 
L 320.289395 181.660108 
L 320.289395 169.546092 
L 402.085625 169.546092 
z
" clip-path="url(#p1279481ad9)" style="fill: #9e75b7; stroke: #000000; stroke-width: 0.25; stroke-linejoin: miter"/>
   </g>
   <g id="patch_37">
    <path d="M 402.085625 166.517588 
L 315.320038 166.517588 
L 315.320038 154.403572 
L 402.085625 154.403572 
z
" clip-path="url(#p1279481ad9)" style="fill: #9e75b7; stroke: #000000; stroke-width: 0.25; stroke-linejoin: miter"/>
   </g>
   <g id="patch_38">
    <path d="M 402.085625 151.375068 
L 292.603814 151.375068 
L 292.603814 139.261052 
L 402.085625 139.261052 
z
" clip-path="url(#p1279481ad9)" style="fill: #9e75b7; stroke: #000000; stroke-width: 0.25; stroke-linejoin: miter"/>
   </g>
   <g id="patch_39">
    <path d="M 402.085625 136.232548 
L 287.598693 136.232548 
L 287.598693 124.118532 
L 402.085625 124.118532 
z
" clip-path="url(#p1279481ad9)" style="fill: #9e75b7; stroke: #000000; stroke-width: 0.25; stroke-linejoin: miter"/>
   </g>
   <g id="patch_40">
    <path d="M 402.085625 121.090028 
L 529.596893 121.090028 
L 529.596893 108.976012 
L 402.085625 108.976012 
z
" clip-path="url(#p1279481ad9)" style="fill: #fecc5d; stroke: #000000; stroke-width: 0.25; stroke-linejoin: miter"/>
   </g>
   <g id="patch_41">
    <path d="M 402.085625 105.947508 
L 238.339558 105.947508 
L 238.339558 93.833492 
L 402.085625 93.833492 
z
" clip-path="url(#p1279481ad9)" style="fill: #9e75b7; stroke: #000000; stroke-width: 0.25; stroke-linejoin: miter"/>
   </g>
   <g id="patch_42">
    <path d="M 402.085625 90.804988 
L 579.407723 90.804988 
L 579.407723 78.690972 
L 402.085625 78.690972 
z
" clip-path="url(#p1279481ad9)" style="fill: #fecc5d; stroke: #000000; stroke-width: 0.25; stroke-linejoin: miter"/>
   </g>
   <g id="patch_43">
    <path d="M 402.085625 75.662468 
L 603.052623 75.662468 
L 603.052623 63.548451 
L 402.085625 63.548451 
z
" clip-path="url(#p1279481ad9)" style="fill: #fecc5d; stroke: #000000; stroke-width: 0.25; stroke-linejoin: miter"/>
   </g>
   <g id="line2d_16">
    <path d="M 402.085625 593.294375 
L 402.085625 30.477187 
" clip-path="url(#p1279481ad9)" style="fill: none; stroke: #000000; stroke-linecap: square"/>
   </g>
   <g id="line2d_17">
    <path d="M 58.97125 54.462939 
L 745.2 54.462939 
" clip-path="url(#p1279481ad9)" style="fill: none; stroke: #000000; stroke-width: 0.7; stroke-linecap: square"/>
   </g>
  </g>
  <g id="axes_2">
   <g id="patch_44">
    <path d="M 612.36 570.24 
L 672.84 570.24 
L 672.84 518.4 
L 612.36 518.4 
z
" style="fill: #ffffff"/>
   </g>
   <g id="patch_45">
    <path d="M 612.36 541.728 
L 669.96 541.728 
L 669.96 536.544 
L 612.36 536.544 
z
" clip-path="url(#p5da56c1c6c)" style="fill: #707070; stroke: #000000; stroke-width: 0.5; stroke-linejoin: miter"/>
   </g>
   <g id="patch_46">
    <path d="M 612.36 552.096 
L 638.926252 552.096 
L 638.926252 546.912 
L 612.36 546.912 
z
" clip-path="url(#p5da56c1c6c)" style="fill: #707070; stroke: #000000; stroke-width: 0.5; stroke-linejoin: miter"/>
   </g>
   <g id="matplotlib.axis_3">
    <g id="ytick_9">
     <g id="line2d_18"/>
     <g id="text_54">
      <!-- Core Affects -->
      <g transform="translate(536.1175 543.695062)scale(0.12 -0.12)">
       <defs>
        <path id="DejaVuSans-43" d="M 4122 4306 
L 4122 3641 
Q 3803 3938 3442 4084 
Q 3081 4231 2675 4231 
Q 1875 4231 1450 3742 
Q 1025 3253 1025 2328 
Q 1025 1406 1450 917 
Q 1875 428 2675 428 
Q 3081 428 3442 575 
Q 3803 722 4122 1019 
L 4122 359 
Q 3791 134 3420 21 
Q 3050 -91 2638 -91 
Q 1578 -91 968 557 
Q 359 1206 359 2328 
Q 359 3453 968 4101 
Q 1578 4750 2638 4750 
Q 3056 4750 3426 4639 
Q 3797 4528 4122 4306 
z
" transform="scale(0.015625)"/>
        <path id="DejaVuSans-41" d="M 2188 4044 
L 1331 1722 
L 3047 1722 
L 2188 4044 
z
M 1831 4666 
L 2547 4666 
L 4325 0 
L 3669 0 
L 3244 1197 
L 1141 1197 
L 716 0 
L 50 0 
L 1831 4666 
z
" transform="scale(0.015625)"/>
       </defs>
       <use xlink:href="#DejaVuSans-43"/>
       <use xlink:href="#DejaVuSans-6f" x="69.824219"/>
       <use xlink:href="#DejaVuSans-72" x="131.005859"/>
       <use xlink:href="#DejaVuSans-65" x="169.869141"/>
       <use xlink:href="#DejaVuSans-20" x="231.392578"/>
       <use xlink:href="#DejaVuSans-41" x="263.179688"/>
       <use xlink:href="#DejaVuSans-66" x="327.962891"/>
       <use xlink:href="#DejaVuSans-66" x="363.167969"/>
       <use xlink:href="#DejaVuSans-65" x="398.373047"/>
       <use xlink:href="#DejaVuSans-63" x="459.896484"/>
       <use xlink:href="#DejaVuSans-74" x="514.876953"/>
       <use xlink:href="#DejaVuSans-73" x="554.085938"/>
      </g>
     </g>
    </g>
    <g id="ytick_10">
     <g id="line2d_19"/>
     <g id="text_55">
      <!-- Emotion words -->
      <g transform="translate(519.698125 554.063063)scale(0.12 -0.12)">
       <defs>
        <path id="DejaVuSans-45" d="M 628 4666 
L 3578 4666 
L 3578 4134 
L 1259 4134 
L 1259 2753 
L 3481 2753 
L 3481 2222 
L 1259 2222 
L 1259 531 
L 3634 531 
L 3634 0 
L 628 0 
L 628 4666 
z
" transform="scale(0.015625)"/>
       </defs>
       <use xlink:href="#DejaVuSans-45"/>
       <use xlink:href="#DejaVuSans-6d" x="63.183594"/>
       <use xlink:href="#DejaVuSans-6f" x="160.595703"/>
       <use xlink:href="#DejaVuSans-74" x="221.777344"/>
       <use xlink:href="#DejaVuSans-69" x="260.986328"/>
       <use xlink:href="#DejaVuSans-6f" x="288.769531"/>
       <use xlink:href="#DejaVuSans-6e" x="349.951172"/>
       <use xlink:href="#DejaVuSans-20" x="413.330078"/>
       <use xlink:href="#DejaVuSans-77" x="445.117188"/>
       <use xlink:href="#DejaVuSans-6f" x="526.904297"/>
       <use xlink:href="#DejaVuSans-72" x="588.085938"/>
       <use xlink:href="#DejaVuSans-64" x="627.449219"/>
       <use xlink:href="#DejaVuSans-73" x="690.925781"/>
      </g>
     </g>
    </g>
   </g>
   <g id="text_56">
    <!-- Text Size: -->
    <g transform="translate(608.05 531.36)scale(0.14 -0.14)">
     <defs>
      <path id="DejaVuSans-54" d="M -19 4666 
L 3928 4666 
L 3928 4134 
L 2272 4134 
L 2272 0 
L 1638 0 
L 1638 4134 
L -19 4134 
L -19 4666 
z
" transform="scale(0.015625)"/>
      <path id="DejaVuSans-3a" d="M 750 794 
L 1409 794 
L 1409 0 
L 750 0 
L 750 794 
z
M 750 3309 
L 1409 3309 
L 1409 2516 
L 750 2516 
L 750 3309 
z
" transform="scale(0.015625)"/>
     </defs>
     <use xlink:href="#DejaVuSans-54"/>
     <use xlink:href="#DejaVuSans-65" x="44.083984"/>
     <use xlink:href="#DejaVuSans-78" x="103.857422"/>
     <use xlink:href="#DejaVuSans-74" x="163.037109"/>
     <use xlink:href="#DejaVuSans-20" x="202.246094"/>
     <use xlink:href="#DejaVuSans-53" x="234.033203"/>
     <use xlink:href="#DejaVuSans-69" x="297.509766"/>
     <use xlink:href="#DejaVuSans-7a" x="325.292969"/>
     <use xlink:href="#DejaVuSans-65" x="377.783203"/>
     <use xlink:href="#DejaVuSans-3a" x="439.306641"/>
    </g>
   </g>
  </g>
 </g>
 <defs>
  <clipPath id="p1279481ad9">
   <rect x="58.97125" y="30.477187" width="686.22875" height="562.817188"/>
  </clipPath>
  <clipPath id="p5da56c1c6c">
   <rect x="612.36" y="518.4" width="60.48" height="51.84"/>
  </clipPath>
 </defs>
</svg>
