<?xml version="1.0" encoding="utf-8" standalone="no"?>
<!DOCTYPE svg PUBLIC "-//W3C//DTD SVG 1.1//EN"
  "http://www.w3.org/Graphics/SVG/1.1/DTD/svg11.dtd">
<svg xmlns:xlink="http://www.w3.org/1999/xlink" width="756pt" height="648pt" viewBox="0 0 756 648" xmlns="http://www.w3.org/2000/svg" version="1.1">
 <metadata>
  <rdf:RDF xmlns:dc="http://purl.org/dc/elements/1.1/" xmlns:cc="http://creativecommons.org/ns#" xmlns:rdf="http://www.w3.org/1999/02/22-rdf-syntax-ns#">
   <cc:Work>
    <dc:type rdf:resource="http://purl.org/dc/dcmitype/StillImage"/>
    <dc:date>2021-12-06T19:40:43.058842</dc:date>
    <dc:format>image/svg+xml</dc:format>
    <dc:creator>
     <cc:Agent>
      <dc:title>Matplotlib v3.5.0, https://matplotlib.org/</dc:title>
     </cc:Agent>
    </dc:creator>
   </cc:Work>
  </rdf:RDF>
 </metadata>
 <defs>
  <style type="text/css">*{stroke-linejoin: round; stroke-linecap: butt}</style>
 </defs>
 <g id="figure_1">
  <g id="patch_1">
   <path d="M 0 648 
L 756 648 
L 756 0 
L 0 0 
z
" style="fill: #ffffff"/>
  </g>
  <g id="axes_1">
   <g id="patch_2">
    <path d="M 58.97125 593.294375 
L 745.2 593.294375 
L 745.2 30.477187 
L 58.97125 30.477187 
z
" style="fill: #ffffff"/>
   </g>
   <g id="patch_3">
    <path d="M 402.085625 66.727195 
L 377.154663 66.727195 
L 377.154663 55.087618 
L 402.085625 55.087618 
z
" clip-path="url(#p2cb848bd5e)" style="fill: #707070; stroke: #000000; stroke-width: 0.25; stroke-linejoin: miter"/>
   </g>
   <g id="patch_4">
    <path d="M 402.085625 44.902988 
L 116.156979 44.902988 
L 116.156979 33.263411 
L 402.085625 33.263411 
z
" clip-path="url(#p2cb848bd5e)" style="fill: #9e75b7; stroke: #000000; stroke-width: 0.25; stroke-linejoin: miter"/>
   </g>
   <g id="patch_5">
    <path d="M 402.085625 44.902988 
L 663.083309 44.902988 
L 663.083309 33.263411 
L 402.085625 33.263411 
z
" clip-path="url(#p2cb848bd5e)" style="fill: #fecc5d; stroke: #000000; stroke-width: 0.25; stroke-linejoin: miter"/>
   </g>
   <g id="matplotlib.axis_1">
    <g id="xtick_1">
     <g id="line2d_1">
      <defs>
       <path id="m9960e34d70" d="M 0 0 
L 0 3.5 
" style="stroke: #000000; stroke-width: 0.8"/>
      </defs>
      <g>
       <use xlink:href="#m9960e34d70" x="82.020212" y="593.294375" style="stroke: #000000; stroke-width: 0.8"/>
      </g>
     </g>
     <g id="text_1">
      <!-- -3.0 -->
      <g transform="translate(68.362556 610.932187)scale(0.14 -0.14)">
       <defs>
        <path id="DejaVuSans-2d" d="M 313 2009 
L 1997 2009 
L 1997 1497 
L 313 1497 
L 313 2009 
z
" transform="scale(0.015625)"/>
        <path id="DejaVuSans-33" d="M 2597 2516 
Q 3050 2419 3304 2112 
Q 3559 1806 3559 1356 
Q 3559 666 3084 287 
Q 2609 -91 1734 -91 
Q 1441 -91 1130 -33 
Q 819 25 488 141 
L 488 750 
Q 750 597 1062 519 
Q 1375 441 1716 441 
Q 2309 441 2620 675 
Q 2931 909 2931 1356 
Q 2931 1769 2642 2001 
Q 2353 2234 1838 2234 
L 1294 2234 
L 1294 2753 
L 1863 2753 
Q 2328 2753 2575 2939 
Q 2822 3125 2822 3475 
Q 2822 3834 2567 4026 
Q 2313 4219 1838 4219 
Q 1578 4219 1281 4162 
Q 984 4106 628 3988 
L 628 4550 
Q 988 4650 1302 4700 
Q 1616 4750 1894 4750 
Q 2613 4750 3031 4423 
Q 3450 4097 3450 3541 
Q 3450 3153 3228 2886 
Q 3006 2619 2597 2516 
z
" transform="scale(0.015625)"/>
        <path id="DejaVuSans-2e" d="M 684 794 
L 1344 794 
L 1344 0 
L 684 0 
L 684 794 
z
" transform="scale(0.015625)"/>
        <path id="DejaVuSans-30" d="M 2034 4250 
Q 1547 4250 1301 3770 
Q 1056 3291 1056 2328 
Q 1056 1369 1301 889 
Q 1547 409 2034 409 
Q 2525 409 2770 889 
Q 3016 1369 3016 2328 
Q 3016 3291 2770 3770 
Q 2525 4250 2034 4250 
z
M 2034 4750 
Q 2819 4750 3233 4129 
Q 3647 3509 3647 2328 
Q 3647 1150 3233 529 
Q 2819 -91 2034 -91 
Q 1250 -91 836 529 
Q 422 1150 422 2328 
Q 422 3509 836 4129 
Q 1250 4750 2034 4750 
z
" transform="scale(0.015625)"/>
       </defs>
       <use xlink:href="#DejaVuSans-2d"/>
       <use xlink:href="#DejaVuSans-33" x="36.083984"/>
       <use xlink:href="#DejaVuSans-2e" x="99.707031"/>
       <use xlink:href="#DejaVuSans-30" x="131.494141"/>
      </g>
     </g>
    </g>
    <g id="xtick_2">
     <g id="line2d_2">
      <g>
       <use xlink:href="#m9960e34d70" x="188.708683" y="593.294375" style="stroke: #000000; stroke-width: 0.8"/>
      </g>
     </g>
     <g id="text_2">
      <!-- -2.0 -->
      <g transform="translate(175.051027 610.932187)scale(0.14 -0.14)">
       <defs>
        <path id="DejaVuSans-32" d="M 1228 531 
L 3431 531 
L 3431 0 
L 469 0 
L 469 531 
Q 828 903 1448 1529 
Q 2069 2156 2228 2338 
Q 2531 2678 2651 2914 
Q 2772 3150 2772 3378 
Q 2772 3750 2511 3984 
Q 2250 4219 1831 4219 
Q 1534 4219 1204 4116 
Q 875 4013 500 3803 
L 500 4441 
Q 881 4594 1212 4672 
Q 1544 4750 1819 4750 
Q 2544 4750 2975 4387 
Q 3406 4025 3406 3419 
Q 3406 3131 3298 2873 
Q 3191 2616 2906 2266 
Q 2828 2175 2409 1742 
Q 1991 1309 1228 531 
z
" transform="scale(0.015625)"/>
       </defs>
       <use xlink:href="#DejaVuSans-2d"/>
       <use xlink:href="#DejaVuSans-32" x="36.083984"/>
       <use xlink:href="#DejaVuSans-2e" x="99.707031"/>
       <use xlink:href="#DejaVuSans-30" x="131.494141"/>
      </g>
     </g>
    </g>
    <g id="xtick_3">
     <g id="line2d_3">
      <g>
       <use xlink:href="#m9960e34d70" x="295.397154" y="593.294375" style="stroke: #000000; stroke-width: 0.8"/>
      </g>
     </g>
     <g id="text_3">
      <!-- -1.0 -->
      <g transform="translate(281.739498 610.932187)scale(0.14 -0.14)">
       <defs>
        <path id="DejaVuSans-31" d="M 794 531 
L 1825 531 
L 1825 4091 
L 703 3866 
L 703 4441 
L 1819 4666 
L 2450 4666 
L 2450 531 
L 3481 531 
L 3481 0 
L 794 0 
L 794 531 
z
" transform="scale(0.015625)"/>
       </defs>
       <use xlink:href="#DejaVuSans-2d"/>
       <use xlink:href="#DejaVuSans-31" x="36.083984"/>
       <use xlink:href="#DejaVuSans-2e" x="99.707031"/>
       <use xlink:href="#DejaVuSans-30" x="131.494141"/>
      </g>
     </g>
    </g>
    <g id="xtick_4">
     <g id="line2d_4">
      <g>
       <use xlink:href="#m9960e34d70" x="402.085625" y="593.294375" style="stroke: #000000; stroke-width: 0.8"/>
      </g>
     </g>
     <g id="text_4">
      <!-- 0.0 -->
      <g transform="translate(390.953437 610.932187)scale(0.14 -0.14)">
       <use xlink:href="#DejaVuSans-30"/>
       <use xlink:href="#DejaVuSans-2e" x="63.623047"/>
       <use xlink:href="#DejaVuSans-30" x="95.410156"/>
      </g>
     </g>
    </g>
    <g id="xtick_5">
     <g id="line2d_5">
      <g>
       <use xlink:href="#m9960e34d70" x="508.774096" y="593.294375" style="stroke: #000000; stroke-width: 0.8"/>
      </g>
     </g>
     <g id="text_5">
      <!-- 1.0 -->
      <g transform="translate(497.641908 610.932187)scale(0.14 -0.14)">
       <use xlink:href="#DejaVuSans-31"/>
       <use xlink:href="#DejaVuSans-2e" x="63.623047"/>
       <use xlink:href="#DejaVuSans-30" x="95.410156"/>
      </g>
     </g>
    </g>
    <g id="xtick_6">
     <g id="line2d_6">
      <g>
       <use xlink:href="#m9960e34d70" x="615.462567" y="593.294375" style="stroke: #000000; stroke-width: 0.8"/>
      </g>
     </g>
     <g id="text_6">
      <!-- 2.0 -->
      <g transform="translate(604.330379 610.932187)scale(0.14 -0.14)">
       <use xlink:href="#DejaVuSans-32"/>
       <use xlink:href="#DejaVuSans-2e" x="63.623047"/>
       <use xlink:href="#DejaVuSans-30" x="95.410156"/>
      </g>
     </g>
    </g>
    <g id="xtick_7">
     <g id="line2d_7">
      <g>
       <use xlink:href="#m9960e34d70" x="722.151038" y="593.294375" style="stroke: #000000; stroke-width: 0.8"/>
      </g>
     </g>
     <g id="text_7">
      <!-- 3.0 -->
      <g transform="translate(711.01885 610.932187)scale(0.14 -0.14)">
       <use xlink:href="#DejaVuSans-33"/>
       <use xlink:href="#DejaVuSans-2e" x="63.623047"/>
       <use xlink:href="#DejaVuSans-30" x="95.410156"/>
      </g>
     </g>
    </g>
    <g id="text_8">
     <!-- Score shift $\delta \Phi_{\tau}$ (%) -->
     <g transform="translate(306.585625 633.040625)scale(0.2 -0.2)">
      <defs>
       <path id="DejaVuSans-53" d="M 3425 4513 
L 3425 3897 
Q 3066 4069 2747 4153 
Q 2428 4238 2131 4238 
Q 1616 4238 1336 4038 
Q 1056 3838 1056 3469 
Q 1056 3159 1242 3001 
Q 1428 2844 1947 2747 
L 2328 2669 
Q 3034 2534 3370 2195 
Q 3706 1856 3706 1288 
Q 3706 609 3251 259 
Q 2797 -91 1919 -91 
Q 1588 -91 1214 -16 
Q 841 59 441 206 
L 441 856 
Q 825 641 1194 531 
Q 1563 422 1919 422 
Q 2459 422 2753 634 
Q 3047 847 3047 1241 
Q 3047 1584 2836 1778 
Q 2625 1972 2144 2069 
L 1759 2144 
Q 1053 2284 737 2584 
Q 422 2884 422 3419 
Q 422 4038 858 4394 
Q 1294 4750 2059 4750 
Q 2388 4750 2728 4690 
Q 3069 4631 3425 4513 
z
" transform="scale(0.015625)"/>
       <path id="DejaVuSans-63" d="M 3122 3366 
L 3122 2828 
Q 2878 2963 2633 3030 
Q 2388 3097 2138 3097 
Q 1578 3097 1268 2742 
Q 959 2388 959 1747 
Q 959 1106 1268 751 
Q 1578 397 2138 397 
Q 2388 397 2633 464 
Q 2878 531 3122 666 
L 3122 134 
Q 2881 22 2623 -34 
Q 2366 -91 2075 -91 
Q 1284 -91 818 406 
Q 353 903 353 1747 
Q 353 2603 823 3093 
Q 1294 3584 2113 3584 
Q 2378 3584 2631 3529 
Q 2884 3475 3122 3366 
z
" transform="scale(0.015625)"/>
       <path id="DejaVuSans-6f" d="M 1959 3097 
Q 1497 3097 1228 2736 
Q 959 2375 959 1747 
Q 959 1119 1226 758 
Q 1494 397 1959 397 
Q 2419 397 2687 759 
Q 2956 1122 2956 1747 
Q 2956 2369 2687 2733 
Q 2419 3097 1959 3097 
z
M 1959 3584 
Q 2709 3584 3137 3096 
Q 3566 2609 3566 1747 
Q 3566 888 3137 398 
Q 2709 -91 1959 -91 
Q 1206 -91 779 398 
Q 353 888 353 1747 
Q 353 2609 779 3096 
Q 1206 3584 1959 3584 
z
" transform="scale(0.015625)"/>
       <path id="DejaVuSans-72" d="M 2631 2963 
Q 2534 3019 2420 3045 
Q 2306 3072 2169 3072 
Q 1681 3072 1420 2755 
Q 1159 2438 1159 1844 
L 1159 0 
L 581 0 
L 581 3500 
L 1159 3500 
L 1159 2956 
Q 1341 3275 1631 3429 
Q 1922 3584 2338 3584 
Q 2397 3584 2469 3576 
Q 2541 3569 2628 3553 
L 2631 2963 
z
" transform="scale(0.015625)"/>
       <path id="DejaVuSans-65" d="M 3597 1894 
L 3597 1613 
L 953 1613 
Q 991 1019 1311 708 
Q 1631 397 2203 397 
Q 2534 397 2845 478 
Q 3156 559 3463 722 
L 3463 178 
Q 3153 47 2828 -22 
Q 2503 -91 2169 -91 
Q 1331 -91 842 396 
Q 353 884 353 1716 
Q 353 2575 817 3079 
Q 1281 3584 2069 3584 
Q 2775 3584 3186 3129 
Q 3597 2675 3597 1894 
z
M 3022 2063 
Q 3016 2534 2758 2815 
Q 2500 3097 2075 3097 
Q 1594 3097 1305 2825 
Q 1016 2553 972 2059 
L 3022 2063 
z
" transform="scale(0.015625)"/>
       <path id="DejaVuSans-20" transform="scale(0.015625)"/>
       <path id="DejaVuSans-73" d="M 2834 3397 
L 2834 2853 
Q 2591 2978 2328 3040 
Q 2066 3103 1784 3103 
Q 1356 3103 1142 2972 
Q 928 2841 928 2578 
Q 928 2378 1081 2264 
Q 1234 2150 1697 2047 
L 1894 2003 
Q 2506 1872 2764 1633 
Q 3022 1394 3022 966 
Q 3022 478 2636 193 
Q 2250 -91 1575 -91 
Q 1294 -91 989 -36 
Q 684 19 347 128 
L 347 722 
Q 666 556 975 473 
Q 1284 391 1588 391 
Q 1994 391 2212 530 
Q 2431 669 2431 922 
Q 2431 1156 2273 1281 
Q 2116 1406 1581 1522 
L 1381 1569 
Q 847 1681 609 1914 
Q 372 2147 372 2553 
Q 372 3047 722 3315 
Q 1072 3584 1716 3584 
Q 2034 3584 2315 3537 
Q 2597 3491 2834 3397 
z
" transform="scale(0.015625)"/>
       <path id="DejaVuSans-68" d="M 3513 2113 
L 3513 0 
L 2938 0 
L 2938 2094 
Q 2938 2591 2744 2837 
Q 2550 3084 2163 3084 
Q 1697 3084 1428 2787 
Q 1159 2491 1159 1978 
L 1159 0 
L 581 0 
L 581 4863 
L 1159 4863 
L 1159 2956 
Q 1366 3272 1645 3428 
Q 1925 3584 2291 3584 
Q 2894 3584 3203 3211 
Q 3513 2838 3513 2113 
z
" transform="scale(0.015625)"/>
       <path id="DejaVuSans-69" d="M 603 3500 
L 1178 3500 
L 1178 0 
L 603 0 
L 603 3500 
z
M 603 4863 
L 1178 4863 
L 1178 4134 
L 603 4134 
L 603 4863 
z
" transform="scale(0.015625)"/>
       <path id="DejaVuSans-66" d="M 2375 4863 
L 2375 4384 
L 1825 4384 
Q 1516 4384 1395 4259 
Q 1275 4134 1275 3809 
L 1275 3500 
L 2222 3500 
L 2222 3053 
L 1275 3053 
L 1275 0 
L 697 0 
L 697 3053 
L 147 3053 
L 147 3500 
L 697 3500 
L 697 3744 
Q 697 4328 969 4595 
Q 1241 4863 1831 4863 
L 2375 4863 
z
" transform="scale(0.015625)"/>
       <path id="DejaVuSans-74" d="M 1172 4494 
L 1172 3500 
L 2356 3500 
L 2356 3053 
L 1172 3053 
L 1172 1153 
Q 1172 725 1289 603 
Q 1406 481 1766 481 
L 2356 481 
L 2356 0 
L 1766 0 
Q 1100 0 847 248 
Q 594 497 594 1153 
L 594 3053 
L 172 3053 
L 172 3500 
L 594 3500 
L 594 4494 
L 1172 4494 
z
" transform="scale(0.015625)"/>
       <path id="DejaVuSans-Oblique-3b4" d="M 3472 4053 
Q 3197 4272 2450 4272 
Q 1659 4272 1588 3906 
Q 1531 3619 2328 3469 
Q 2953 3353 3253 3003 
Q 3616 2581 3447 1716 
Q 3284 888 2763 400 
Q 2238 -91 1488 -91 
Q 741 -91 406 400 
Q 72 888 241 1747 
Q 363 2384 891 2900 
Q 1097 3100 1353 3213 
Q 913 3459 1000 3900 
Q 1166 4750 2544 4750 
Q 3234 4750 3566 4531 
L 3472 4053 
z
M 1753 3056 
Q 1525 2966 1306 2738 
Q 969 2384 847 1747 
Q 722 1113 919 756 
Q 1119 397 1584 397 
Q 2044 397 2381 759 
Q 2722 1122 2838 1716 
Q 2956 2338 2731 2638 
Q 2491 2959 2103 2994 
Q 1906 3013 1753 3056 
z
" transform="scale(0.015625)"/>
       <path id="DejaVuSans-3a6" d="M 2206 3644 
Q 1738 3578 1431 3306 
Q 1025 2947 1025 2328 
Q 1025 1713 1431 1353 
Q 1738 1081 2206 1016 
L 2206 3644 
z
M 2838 1016 
Q 3306 1081 3613 1353 
Q 4013 1713 4013 2328 
Q 4013 2947 3613 3306 
Q 3306 3578 2838 3644 
L 2838 1016 
z
M 2206 494 
Q 1444 563 950 981 
Q 359 1481 359 2328 
Q 359 3175 950 3678 
Q 1441 4100 2206 4169 
L 2206 4666 
L 2838 4666 
L 2838 4169 
Q 3600 4097 4091 3678 
Q 4678 3175 4678 2328 
Q 4678 1484 4091 981 
Q 3600 563 2838 491 
L 2838 0 
L 2206 0 
L 2206 494 
z
" transform="scale(0.015625)"/>
       <path id="DejaVuSans-Oblique-3c4" d="M 2103 638 
Q 2188 488 2525 488 
L 2800 488 
L 2706 0 
L 2363 0 
Q 1800 0 1600 300 
Q 1403 606 1534 1269 
L 1856 2925 
L 541 2925 
L 653 3500 
L 3881 3500 
L 3769 2925 
L 2444 2925 
L 2113 1234 
Q 2025 781 2103 638 
z
" transform="scale(0.015625)"/>
       <path id="DejaVuSans-28" d="M 1984 4856 
Q 1566 4138 1362 3434 
Q 1159 2731 1159 2009 
Q 1159 1288 1364 580 
Q 1569 -128 1984 -844 
L 1484 -844 
Q 1016 -109 783 600 
Q 550 1309 550 2009 
Q 550 2706 781 3412 
Q 1013 4119 1484 4856 
L 1984 4856 
z
" transform="scale(0.015625)"/>
       <path id="DejaVuSans-25" d="M 4653 2053 
Q 4381 2053 4226 1822 
Q 4072 1591 4072 1178 
Q 4072 772 4226 539 
Q 4381 306 4653 306 
Q 4919 306 5073 539 
Q 5228 772 5228 1178 
Q 5228 1588 5073 1820 
Q 4919 2053 4653 2053 
z
M 4653 2450 
Q 5147 2450 5437 2106 
Q 5728 1763 5728 1178 
Q 5728 594 5436 251 
Q 5144 -91 4653 -91 
Q 4153 -91 3862 251 
Q 3572 594 3572 1178 
Q 3572 1766 3864 2108 
Q 4156 2450 4653 2450 
z
M 1428 4353 
Q 1159 4353 1004 4120 
Q 850 3888 850 3481 
Q 850 3069 1003 2837 
Q 1156 2606 1428 2606 
Q 1700 2606 1854 2837 
Q 2009 3069 2009 3481 
Q 2009 3884 1853 4118 
Q 1697 4353 1428 4353 
z
M 4250 4750 
L 4750 4750 
L 1831 -91 
L 1331 -91 
L 4250 4750 
z
M 1428 4750 
Q 1922 4750 2215 4408 
Q 2509 4066 2509 3481 
Q 2509 2891 2217 2550 
Q 1925 2209 1428 2209 
Q 931 2209 642 2551 
Q 353 2894 353 3481 
Q 353 4063 643 4406 
Q 934 4750 1428 4750 
z
" transform="scale(0.015625)"/>
       <path id="DejaVuSans-29" d="M 513 4856 
L 1013 4856 
Q 1481 4119 1714 3412 
Q 1947 2706 1947 2009 
Q 1947 1309 1714 600 
Q 1481 -109 1013 -844 
L 513 -844 
Q 928 -128 1133 580 
Q 1338 1288 1338 2009 
Q 1338 2731 1133 3434 
Q 928 4138 513 4856 
z
" transform="scale(0.015625)"/>
      </defs>
      <use xlink:href="#DejaVuSans-53" transform="translate(0 0.015625)"/>
      <use xlink:href="#DejaVuSans-63" transform="translate(63.476562 0.015625)"/>
      <use xlink:href="#DejaVuSans-6f" transform="translate(118.457031 0.015625)"/>
      <use xlink:href="#DejaVuSans-72" transform="translate(179.638672 0.015625)"/>
      <use xlink:href="#DejaVuSans-65" transform="translate(220.751953 0.015625)"/>
      <use xlink:href="#DejaVuSans-20" transform="translate(282.275391 0.015625)"/>
      <use xlink:href="#DejaVuSans-73" transform="translate(314.0625 0.015625)"/>
      <use xlink:href="#DejaVuSans-68" transform="translate(366.162109 0.015625)"/>
      <use xlink:href="#DejaVuSans-69" transform="translate(429.541016 0.015625)"/>
      <use xlink:href="#DejaVuSans-66" transform="translate(457.324219 0.015625)"/>
      <use xlink:href="#DejaVuSans-74" transform="translate(492.529297 0.015625)"/>
      <use xlink:href="#DejaVuSans-20" transform="translate(531.738281 0.015625)"/>
      <use xlink:href="#DejaVuSans-Oblique-3b4" transform="translate(563.525391 0.015625)"/>
      <use xlink:href="#DejaVuSans-3a6" transform="translate(624.707031 0.015625)"/>
      <use xlink:href="#DejaVuSans-Oblique-3c4" transform="translate(704.375 -16.390625)scale(0.7)"/>
      <use xlink:href="#DejaVuSans-20" transform="translate(749.25293 0.015625)"/>
      <use xlink:href="#DejaVuSans-28" transform="translate(781.040039 0.015625)"/>
      <use xlink:href="#DejaVuSans-25" transform="translate(820.053711 0.015625)"/>
      <use xlink:href="#DejaVuSans-29" transform="translate(915.073242 0.015625)"/>
     </g>
    </g>
   </g>
   <g id="matplotlib.axis_2">
    <g id="ytick_1">
     <g id="line2d_8">
      <defs>
       <path id="mf8830beb2c" d="M 0 0 
L -3.5 0 
" style="stroke: #000000; stroke-width: 0.8"/>
      </defs>
      <g>
       <use xlink:href="#mf8830beb2c" x="58.97125" y="584.688363" style="stroke: #000000; stroke-width: 0.8"/>
      </g>
     </g>
     <g id="text_9">
      <!-- 35 -->
      <g transform="translate(34.15625 590.007269)scale(0.14 -0.14)">
       <defs>
        <path id="DejaVuSans-35" d="M 691 4666 
L 3169 4666 
L 3169 4134 
L 1269 4134 
L 1269 2991 
Q 1406 3038 1543 3061 
Q 1681 3084 1819 3084 
Q 2600 3084 3056 2656 
Q 3513 2228 3513 1497 
Q 3513 744 3044 326 
Q 2575 -91 1722 -91 
Q 1428 -91 1123 -41 
Q 819 9 494 109 
L 494 744 
Q 775 591 1075 516 
Q 1375 441 1709 441 
Q 2250 441 2565 725 
Q 2881 1009 2881 1497 
Q 2881 1984 2565 2268 
Q 2250 2553 1709 2553 
Q 1456 2553 1204 2497 
Q 953 2441 691 2322 
L 691 4666 
z
" transform="scale(0.015625)"/>
       </defs>
       <use xlink:href="#DejaVuSans-33"/>
       <use xlink:href="#DejaVuSans-35" x="63.623047"/>
      </g>
     </g>
    </g>
    <g id="ytick_2">
     <g id="line2d_9">
      <g>
       <use xlink:href="#mf8830beb2c" x="58.97125" y="511.941008" style="stroke: #000000; stroke-width: 0.8"/>
      </g>
     </g>
     <g id="text_10">
      <!-- 30 -->
      <g transform="translate(34.15625 517.259914)scale(0.14 -0.14)">
       <use xlink:href="#DejaVuSans-33"/>
       <use xlink:href="#DejaVuSans-30" x="63.623047"/>
      </g>
     </g>
    </g>
    <g id="ytick_3">
     <g id="line2d_10">
      <g>
       <use xlink:href="#mf8830beb2c" x="58.97125" y="439.193653" style="stroke: #000000; stroke-width: 0.8"/>
      </g>
     </g>
     <g id="text_11">
      <!-- 25 -->
      <g transform="translate(34.15625 444.512559)scale(0.14 -0.14)">
       <use xlink:href="#DejaVuSans-32"/>
       <use xlink:href="#DejaVuSans-35" x="63.623047"/>
      </g>
     </g>
    </g>
    <g id="ytick_4">
     <g id="line2d_11">
      <g>
       <use xlink:href="#mf8830beb2c" x="58.97125" y="366.446298" style="stroke: #000000; stroke-width: 0.8"/>
      </g>
     </g>
     <g id="text_12">
      <!-- 20 -->
      <g transform="translate(34.15625 371.765204)scale(0.14 -0.14)">
       <use xlink:href="#DejaVuSans-32"/>
       <use xlink:href="#DejaVuSans-30" x="63.623047"/>
      </g>
     </g>
    </g>
    <g id="ytick_5">
     <g id="line2d_12">
      <g>
       <use xlink:href="#mf8830beb2c" x="58.97125" y="293.698942" style="stroke: #000000; stroke-width: 0.8"/>
      </g>
     </g>
     <g id="text_13">
      <!-- 15 -->
      <g transform="translate(34.15625 299.017849)scale(0.14 -0.14)">
       <use xlink:href="#DejaVuSans-31"/>
       <use xlink:href="#DejaVuSans-35" x="63.623047"/>
      </g>
     </g>
    </g>
    <g id="ytick_6">
     <g id="line2d_13">
      <g>
       <use xlink:href="#mf8830beb2c" x="58.97125" y="220.951587" style="stroke: #000000; stroke-width: 0.8"/>
      </g>
     </g>
     <g id="text_14">
      <!-- 10 -->
      <g transform="translate(34.15625 226.270494)scale(0.14 -0.14)">
       <use xlink:href="#DejaVuSans-31"/>
       <use xlink:href="#DejaVuSans-30" x="63.623047"/>
      </g>
     </g>
    </g>
    <g id="ytick_7">
     <g id="line2d_14">
      <g>
       <use xlink:href="#mf8830beb2c" x="58.97125" y="148.204232" style="stroke: #000000; stroke-width: 0.8"/>
      </g>
     </g>
     <g id="text_15">
      <!-- 5 -->
      <g transform="translate(43.06375 153.523139)scale(0.14 -0.14)">
       <use xlink:href="#DejaVuSans-35"/>
      </g>
     </g>
    </g>
    <g id="ytick_8">
     <g id="line2d_15">
      <g>
       <use xlink:href="#mf8830beb2c" x="58.97125" y="90.006348" style="stroke: #000000; stroke-width: 0.8"/>
      </g>
     </g>
     <g id="text_16">
      <!-- 1 -->
      <g transform="translate(43.06375 95.325254)scale(0.14 -0.14)">
       <use xlink:href="#DejaVuSans-31"/>
      </g>
     </g>
    </g>
    <g id="text_17">
     <!-- Rank -->
     <g transform="translate(25.996875 336.865469)rotate(-90)scale(0.2 -0.2)">
      <defs>
       <path id="DejaVuSans-52" d="M 2841 2188 
Q 3044 2119 3236 1894 
Q 3428 1669 3622 1275 
L 4263 0 
L 3584 0 
L 2988 1197 
Q 2756 1666 2539 1819 
Q 2322 1972 1947 1972 
L 1259 1972 
L 1259 0 
L 628 0 
L 628 4666 
L 2053 4666 
Q 2853 4666 3247 4331 
Q 3641 3997 3641 3322 
Q 3641 2881 3436 2590 
Q 3231 2300 2841 2188 
z
M 1259 4147 
L 1259 2491 
L 2053 2491 
Q 2509 2491 2742 2702 
Q 2975 2913 2975 3322 
Q 2975 3731 2742 3939 
Q 2509 4147 2053 4147 
L 1259 4147 
z
" transform="scale(0.015625)"/>
       <path id="DejaVuSans-61" d="M 2194 1759 
Q 1497 1759 1228 1600 
Q 959 1441 959 1056 
Q 959 750 1161 570 
Q 1363 391 1709 391 
Q 2188 391 2477 730 
Q 2766 1069 2766 1631 
L 2766 1759 
L 2194 1759 
z
M 3341 1997 
L 3341 0 
L 2766 0 
L 2766 531 
Q 2569 213 2275 61 
Q 1981 -91 1556 -91 
Q 1019 -91 701 211 
Q 384 513 384 1019 
Q 384 1609 779 1909 
Q 1175 2209 1959 2209 
L 2766 2209 
L 2766 2266 
Q 2766 2663 2505 2880 
Q 2244 3097 1772 3097 
Q 1472 3097 1187 3025 
Q 903 2953 641 2809 
L 641 3341 
Q 956 3463 1253 3523 
Q 1550 3584 1831 3584 
Q 2591 3584 2966 3190 
Q 3341 2797 3341 1997 
z
" transform="scale(0.015625)"/>
       <path id="DejaVuSans-6e" d="M 3513 2113 
L 3513 0 
L 2938 0 
L 2938 2094 
Q 2938 2591 2744 2837 
Q 2550 3084 2163 3084 
Q 1697 3084 1428 2787 
Q 1159 2491 1159 1978 
L 1159 0 
L 581 0 
L 581 3500 
L 1159 3500 
L 1159 2956 
Q 1366 3272 1645 3428 
Q 1925 3584 2291 3584 
Q 2894 3584 3203 3211 
Q 3513 2838 3513 2113 
z
" transform="scale(0.015625)"/>
       <path id="DejaVuSans-6b" d="M 581 4863 
L 1159 4863 
L 1159 1991 
L 2875 3500 
L 3609 3500 
L 1753 1863 
L 3688 0 
L 2938 0 
L 1159 1709 
L 1159 0 
L 581 0 
L 581 4863 
z
" transform="scale(0.015625)"/>
      </defs>
      <use xlink:href="#DejaVuSans-52"/>
      <use xlink:href="#DejaVuSans-61" x="67.232422"/>
      <use xlink:href="#DejaVuSans-6e" x="128.511719"/>
      <use xlink:href="#DejaVuSans-6b" x="191.890625"/>
     </g>
    </g>
   </g>
   <g id="patch_6">
    <path d="M 58.97125 593.294375 
L 58.97125 30.477188 
" style="fill: none; stroke: #000000; stroke-width: 0.8; stroke-linejoin: miter; stroke-linecap: square"/>
   </g>
   <g id="patch_7">
    <path d="M 745.2 593.294375 
L 745.2 30.477188 
" style="fill: none; stroke: #000000; stroke-width: 0.8; stroke-linejoin: miter; stroke-linecap: square"/>
   </g>
   <g id="patch_8">
    <path d="M 58.97125 593.294375 
L 745.2 593.294375 
" style="fill: none; stroke: #000000; stroke-width: 0.8; stroke-linejoin: miter; stroke-linecap: square"/>
   </g>
   <g id="patch_9">
    <path d="M 58.97125 30.477187 
L 745.2 30.477187 
" style="fill: none; stroke: #000000; stroke-width: 0.8; stroke-linejoin: miter; stroke-linecap: square"/>
   </g>
   <g id="text_18">
    <!-- Entropy shift of valence -->
    <g transform="translate(295.363906 24.477187)scale(0.18 -0.18)">
     <defs>
      <path id="DejaVuSans-45" d="M 628 4666 
L 3578 4666 
L 3578 4134 
L 1259 4134 
L 1259 2753 
L 3481 2753 
L 3481 2222 
L 1259 2222 
L 1259 531 
L 3634 531 
L 3634 0 
L 628 0 
L 628 4666 
z
" transform="scale(0.015625)"/>
      <path id="DejaVuSans-70" d="M 1159 525 
L 1159 -1331 
L 581 -1331 
L 581 3500 
L 1159 3500 
L 1159 2969 
Q 1341 3281 1617 3432 
Q 1894 3584 2278 3584 
Q 2916 3584 3314 3078 
Q 3713 2572 3713 1747 
Q 3713 922 3314 415 
Q 2916 -91 2278 -91 
Q 1894 -91 1617 61 
Q 1341 213 1159 525 
z
M 3116 1747 
Q 3116 2381 2855 2742 
Q 2594 3103 2138 3103 
Q 1681 3103 1420 2742 
Q 1159 2381 1159 1747 
Q 1159 1113 1420 752 
Q 1681 391 2138 391 
Q 2594 391 2855 752 
Q 3116 1113 3116 1747 
z
" transform="scale(0.015625)"/>
      <path id="DejaVuSans-79" d="M 2059 -325 
Q 1816 -950 1584 -1140 
Q 1353 -1331 966 -1331 
L 506 -1331 
L 506 -850 
L 844 -850 
Q 1081 -850 1212 -737 
Q 1344 -625 1503 -206 
L 1606 56 
L 191 3500 
L 800 3500 
L 1894 763 
L 2988 3500 
L 3597 3500 
L 2059 -325 
z
" transform="scale(0.015625)"/>
      <path id="DejaVuSans-76" d="M 191 3500 
L 800 3500 
L 1894 563 
L 2988 3500 
L 3597 3500 
L 2284 0 
L 1503 0 
L 191 3500 
z
" transform="scale(0.015625)"/>
      <path id="DejaVuSans-6c" d="M 603 4863 
L 1178 4863 
L 1178 0 
L 603 0 
L 603 4863 
z
" transform="scale(0.015625)"/>
     </defs>
     <use xlink:href="#DejaVuSans-45"/>
     <use xlink:href="#DejaVuSans-6e" x="63.183594"/>
     <use xlink:href="#DejaVuSans-74" x="126.5625"/>
     <use xlink:href="#DejaVuSans-72" x="165.771484"/>
     <use xlink:href="#DejaVuSans-6f" x="204.634766"/>
     <use xlink:href="#DejaVuSans-70" x="265.816406"/>
     <use xlink:href="#DejaVuSans-79" x="329.292969"/>
     <use xlink:href="#DejaVuSans-20" x="388.472656"/>
     <use xlink:href="#DejaVuSans-73" x="420.259766"/>
     <use xlink:href="#DejaVuSans-68" x="472.359375"/>
     <use xlink:href="#DejaVuSans-69" x="535.738281"/>
     <use xlink:href="#DejaVuSans-66" x="563.521484"/>
     <use xlink:href="#DejaVuSans-74" x="596.976562"/>
     <use xlink:href="#DejaVuSans-20" x="636.185547"/>
     <use xlink:href="#DejaVuSans-6f" x="667.972656"/>
     <use xlink:href="#DejaVuSans-66" x="729.154297"/>
     <use xlink:href="#DejaVuSans-20" x="764.359375"/>
     <use xlink:href="#DejaVuSans-76" x="796.146484"/>
     <use xlink:href="#DejaVuSans-61" x="855.326172"/>
     <use xlink:href="#DejaVuSans-6c" x="916.605469"/>
     <use xlink:href="#DejaVuSans-65" x="944.388672"/>
     <use xlink:href="#DejaVuSans-6e" x="1005.912109"/>
     <use xlink:href="#DejaVuSans-63" x="1069.291016"/>
     <use xlink:href="#DejaVuSans-65" x="1124.271484"/>
    </g>
   </g>
   <g id="text_19">
    <!-- pau -->
    <g transform="translate(318.192901 588.27555)scale(0.13 -0.13)">
     <defs>
      <path id="DejaVuSans-75" d="M 544 1381 
L 544 3500 
L 1119 3500 
L 1119 1403 
Q 1119 906 1312 657 
Q 1506 409 1894 409 
Q 2359 409 2629 706 
Q 2900 1003 2900 1516 
L 2900 3500 
L 3475 3500 
L 3475 0 
L 2900 0 
L 2900 538 
Q 2691 219 2414 64 
Q 2138 -91 1772 -91 
Q 1169 -91 856 284 
Q 544 659 544 1381 
z
M 1991 3584 
L 1991 3584 
z
" transform="scale(0.015625)"/>
     </defs>
     <use xlink:href="#DejaVuSans-70"/>
     <use xlink:href="#DejaVuSans-61" x="63.476562"/>
     <use xlink:href="#DejaVuSans-75" x="124.755859"/>
    </g>
   </g>
   <g id="text_20">
    <!-- tranquilitat -->
    <g transform="translate(270.519464 573.726079)scale(0.13 -0.13)">
     <defs>
      <path id="DejaVuSans-71" d="M 947 1747 
Q 947 1113 1208 752 
Q 1469 391 1925 391 
Q 2381 391 2643 752 
Q 2906 1113 2906 1747 
Q 2906 2381 2643 2742 
Q 2381 3103 1925 3103 
Q 1469 3103 1208 2742 
Q 947 2381 947 1747 
z
M 2906 525 
Q 2725 213 2448 61 
Q 2172 -91 1784 -91 
Q 1150 -91 751 415 
Q 353 922 353 1747 
Q 353 2572 751 3078 
Q 1150 3584 1784 3584 
Q 2172 3584 2448 3432 
Q 2725 3281 2906 2969 
L 2906 3500 
L 3481 3500 
L 3481 -1331 
L 2906 -1331 
L 2906 525 
z
" transform="scale(0.015625)"/>
     </defs>
     <use xlink:href="#DejaVuSans-74"/>
     <use xlink:href="#DejaVuSans-72" x="39.208984"/>
     <use xlink:href="#DejaVuSans-61" x="80.322266"/>
     <use xlink:href="#DejaVuSans-6e" x="141.601562"/>
     <use xlink:href="#DejaVuSans-71" x="204.980469"/>
     <use xlink:href="#DejaVuSans-75" x="268.457031"/>
     <use xlink:href="#DejaVuSans-69" x="331.835938"/>
     <use xlink:href="#DejaVuSans-6c" x="359.619141"/>
     <use xlink:href="#DejaVuSans-69" x="387.402344"/>
     <use xlink:href="#DejaVuSans-74" x="415.185547"/>
     <use xlink:href="#DejaVuSans-61" x="454.394531"/>
     <use xlink:href="#DejaVuSans-74" x="515.673828"/>
    </g>
   </g>
   <g id="text_21">
    <!-- pacífica -->
    <g transform="translate(292.36962 559.436608)scale(0.13 -0.13)">
     <defs>
      <path id="DejaVuSans-ed" d="M 1322 5119 
L 1944 5119 
L 926 3944 
L 447 3944 
L 1322 5119 
z
M 603 3500 
L 1178 3500 
L 1178 0 
L 603 0 
L 603 3500 
z
M 891 3584 
L 891 3584 
z
" transform="scale(0.015625)"/>
     </defs>
     <use xlink:href="#DejaVuSans-70"/>
     <use xlink:href="#DejaVuSans-61" x="63.476562"/>
     <use xlink:href="#DejaVuSans-63" x="124.755859"/>
     <use xlink:href="#DejaVuSans-ed" x="179.736328"/>
     <use xlink:href="#DejaVuSans-66" x="207.519531"/>
     <use xlink:href="#DejaVuSans-69" x="242.724609"/>
     <use xlink:href="#DejaVuSans-63" x="270.507812"/>
     <use xlink:href="#DejaVuSans-61" x="325.488281"/>
    </g>
   </g>
   <g id="text_22">
    <!-- relajante -->
    <g transform="translate(285.069723 544.627137)scale(0.13 -0.13)">
     <defs>
      <path id="DejaVuSans-6a" d="M 603 3500 
L 1178 3500 
L 1178 -63 
Q 1178 -731 923 -1031 
Q 669 -1331 103 -1331 
L -116 -1331 
L -116 -844 
L 38 -844 
Q 366 -844 484 -692 
Q 603 -541 603 -63 
L 603 3500 
z
M 603 4863 
L 1178 4863 
L 1178 4134 
L 603 4134 
L 603 4863 
z
" transform="scale(0.015625)"/>
     </defs>
     <use xlink:href="#DejaVuSans-72"/>
     <use xlink:href="#DejaVuSans-65" x="38.863281"/>
     <use xlink:href="#DejaVuSans-6c" x="100.386719"/>
     <use xlink:href="#DejaVuSans-61" x="128.169922"/>
     <use xlink:href="#DejaVuSans-6a" x="189.449219"/>
     <use xlink:href="#DejaVuSans-61" x="217.232422"/>
     <use xlink:href="#DejaVuSans-6e" x="278.511719"/>
     <use xlink:href="#DejaVuSans-74" x="341.890625"/>
     <use xlink:href="#DejaVuSans-65" x="381.099609"/>
    </g>
   </g>
   <g id="text_23">
    <!-- extrany -->
    <g transform="translate(461.701301 530.077666)scale(0.13 -0.13)">
     <defs>
      <path id="DejaVuSans-78" d="M 3513 3500 
L 2247 1797 
L 3578 0 
L 2900 0 
L 1881 1375 
L 863 0 
L 184 0 
L 1544 1831 
L 300 3500 
L 978 3500 
L 1906 2253 
L 2834 3500 
L 3513 3500 
z
" transform="scale(0.015625)"/>
     </defs>
     <use xlink:href="#DejaVuSans-65"/>
     <use xlink:href="#DejaVuSans-78" x="59.773438"/>
     <use xlink:href="#DejaVuSans-74" x="118.953125"/>
     <use xlink:href="#DejaVuSans-72" x="158.162109"/>
     <use xlink:href="#DejaVuSans-61" x="199.275391"/>
     <use xlink:href="#DejaVuSans-6e" x="260.554688"/>
     <use xlink:href="#DejaVuSans-79" x="323.933594"/>
    </g>
   </g>
   <g id="text_24">
    <!-- nostàlgica -->
    <g transform="translate(461.701301 515.788195)scale(0.13 -0.13)">
     <defs>
      <path id="DejaVuSans-e0" d="M 2194 1759 
Q 1497 1759 1228 1600 
Q 959 1441 959 1056 
Q 959 750 1161 570 
Q 1363 391 1709 391 
Q 2188 391 2477 730 
Q 2766 1069 2766 1631 
L 2766 1759 
L 2194 1759 
z
M 3341 1997 
L 3341 0 
L 2766 0 
L 2766 531 
Q 2569 213 2275 61 
Q 1981 -91 1556 -91 
Q 1019 -91 701 211 
Q 384 513 384 1019 
Q 384 1609 779 1909 
Q 1175 2209 1959 2209 
L 2766 2209 
L 2766 2266 
Q 2766 2663 2505 2880 
Q 2244 3097 1772 3097 
Q 1472 3097 1187 3025 
Q 903 2953 641 2809 
L 641 3341 
Q 956 3463 1253 3523 
Q 1550 3584 1831 3584 
Q 2591 3584 2966 3190 
Q 3341 2797 3341 1997 
z
M 1403 5119 
L 2284 3950 
L 1806 3950 
L 787 5119 
L 1403 5119 
z
" transform="scale(0.015625)"/>
      <path id="DejaVuSans-67" d="M 2906 1791 
Q 2906 2416 2648 2759 
Q 2391 3103 1925 3103 
Q 1463 3103 1205 2759 
Q 947 2416 947 1791 
Q 947 1169 1205 825 
Q 1463 481 1925 481 
Q 2391 481 2648 825 
Q 2906 1169 2906 1791 
z
M 3481 434 
Q 3481 -459 3084 -895 
Q 2688 -1331 1869 -1331 
Q 1566 -1331 1297 -1286 
Q 1028 -1241 775 -1147 
L 775 -588 
Q 1028 -725 1275 -790 
Q 1522 -856 1778 -856 
Q 2344 -856 2625 -561 
Q 2906 -266 2906 331 
L 2906 616 
Q 2728 306 2450 153 
Q 2172 0 1784 0 
Q 1141 0 747 490 
Q 353 981 353 1791 
Q 353 2603 747 3093 
Q 1141 3584 1784 3584 
Q 2172 3584 2450 3431 
Q 2728 3278 2906 2969 
L 2906 3500 
L 3481 3500 
L 3481 434 
z
" transform="scale(0.015625)"/>
     </defs>
     <use xlink:href="#DejaVuSans-6e"/>
     <use xlink:href="#DejaVuSans-6f" x="63.378906"/>
     <use xlink:href="#DejaVuSans-73" x="124.560547"/>
     <use xlink:href="#DejaVuSans-74" x="176.660156"/>
     <use xlink:href="#DejaVuSans-e0" x="215.869141"/>
     <use xlink:href="#DejaVuSans-6c" x="277.148438"/>
     <use xlink:href="#DejaVuSans-67" x="304.931641"/>
     <use xlink:href="#DejaVuSans-69" x="368.408203"/>
     <use xlink:href="#DejaVuSans-63" x="396.191406"/>
     <use xlink:href="#DejaVuSans-61" x="451.171875"/>
    </g>
   </g>
   <g id="text_25">
    <!-- dolorosa -->
    <g transform="translate(461.701301 500.978724)scale(0.13 -0.13)">
     <defs>
      <path id="DejaVuSans-64" d="M 2906 2969 
L 2906 4863 
L 3481 4863 
L 3481 0 
L 2906 0 
L 2906 525 
Q 2725 213 2448 61 
Q 2172 -91 1784 -91 
Q 1150 -91 751 415 
Q 353 922 353 1747 
Q 353 2572 751 3078 
Q 1150 3584 1784 3584 
Q 2172 3584 2448 3432 
Q 2725 3281 2906 2969 
z
M 947 1747 
Q 947 1113 1208 752 
Q 1469 391 1925 391 
Q 2381 391 2643 752 
Q 2906 1113 2906 1747 
Q 2906 2381 2643 2742 
Q 2381 3103 1925 3103 
Q 1469 3103 1208 2742 
Q 947 2381 947 1747 
z
" transform="scale(0.015625)"/>
     </defs>
     <use xlink:href="#DejaVuSans-64"/>
     <use xlink:href="#DejaVuSans-6f" x="63.476562"/>
     <use xlink:href="#DejaVuSans-6c" x="124.658203"/>
     <use xlink:href="#DejaVuSans-6f" x="152.441406"/>
     <use xlink:href="#DejaVuSans-72" x="213.623047"/>
     <use xlink:href="#DejaVuSans-6f" x="252.486328"/>
     <use xlink:href="#DejaVuSans-73" x="313.667969"/>
     <use xlink:href="#DejaVuSans-61" x="365.767578"/>
    </g>
   </g>
   <g id="text_26">
    <!-- molestia -->
    <g transform="translate(461.701301 486.429253)scale(0.13 -0.13)">
     <defs>
      <path id="DejaVuSans-6d" d="M 3328 2828 
Q 3544 3216 3844 3400 
Q 4144 3584 4550 3584 
Q 5097 3584 5394 3201 
Q 5691 2819 5691 2113 
L 5691 0 
L 5113 0 
L 5113 2094 
Q 5113 2597 4934 2840 
Q 4756 3084 4391 3084 
Q 3944 3084 3684 2787 
Q 3425 2491 3425 1978 
L 3425 0 
L 2847 0 
L 2847 2094 
Q 2847 2600 2669 2842 
Q 2491 3084 2119 3084 
Q 1678 3084 1418 2786 
Q 1159 2488 1159 1978 
L 1159 0 
L 581 0 
L 581 3500 
L 1159 3500 
L 1159 2956 
Q 1356 3278 1631 3431 
Q 1906 3584 2284 3584 
Q 2666 3584 2933 3390 
Q 3200 3197 3328 2828 
z
" transform="scale(0.015625)"/>
     </defs>
     <use xlink:href="#DejaVuSans-6d"/>
     <use xlink:href="#DejaVuSans-6f" x="97.412109"/>
     <use xlink:href="#DejaVuSans-6c" x="158.59375"/>
     <use xlink:href="#DejaVuSans-65" x="186.376953"/>
     <use xlink:href="#DejaVuSans-73" x="247.900391"/>
     <use xlink:href="#DejaVuSans-74" x="300"/>
     <use xlink:href="#DejaVuSans-69" x="339.208984"/>
     <use xlink:href="#DejaVuSans-61" x="366.992188"/>
    </g>
   </g>
   <g id="text_27">
    <!-- sorpresa -->
    <g transform="translate(284.17923 471.879782)scale(0.13 -0.13)">
     <use xlink:href="#DejaVuSans-73"/>
     <use xlink:href="#DejaVuSans-6f" x="52.099609"/>
     <use xlink:href="#DejaVuSans-72" x="113.28125"/>
     <use xlink:href="#DejaVuSans-70" x="154.394531"/>
     <use xlink:href="#DejaVuSans-72" x="217.871094"/>
     <use xlink:href="#DejaVuSans-65" x="256.734375"/>
     <use xlink:href="#DejaVuSans-73" x="318.257812"/>
     <use xlink:href="#DejaVuSans-61" x="370.357422"/>
    </g>
   </g>
   <g id="text_28">
    <!-- religiosa -->
    <g transform="translate(465.181238 457.330311)scale(0.13 -0.13)">
     <use xlink:href="#DejaVuSans-72"/>
     <use xlink:href="#DejaVuSans-65" x="38.863281"/>
     <use xlink:href="#DejaVuSans-6c" x="100.386719"/>
     <use xlink:href="#DejaVuSans-69" x="128.169922"/>
     <use xlink:href="#DejaVuSans-67" x="155.953125"/>
     <use xlink:href="#DejaVuSans-69" x="219.429688"/>
     <use xlink:href="#DejaVuSans-6f" x="247.212891"/>
     <use xlink:href="#DejaVuSans-73" x="308.394531"/>
     <use xlink:href="#DejaVuSans-61" x="360.494141"/>
    </g>
   </g>
   <g id="text_29">
    <!-- relaxant -->
    <g transform="translate(283.370755 442.78084)scale(0.13 -0.13)">
     <use xlink:href="#DejaVuSans-72"/>
     <use xlink:href="#DejaVuSans-65" x="38.863281"/>
     <use xlink:href="#DejaVuSans-6c" x="100.386719"/>
     <use xlink:href="#DejaVuSans-61" x="128.169922"/>
     <use xlink:href="#DejaVuSans-78" x="189.449219"/>
     <use xlink:href="#DejaVuSans-61" x="248.628906"/>
     <use xlink:href="#DejaVuSans-6e" x="309.908203"/>
     <use xlink:href="#DejaVuSans-74" x="373.287109"/>
    </g>
   </g>
   <g id="text_30">
    <!-- amor -->
    <g transform="translate(301.589197 428.231369)scale(0.13 -0.13)">
     <use xlink:href="#DejaVuSans-61"/>
     <use xlink:href="#DejaVuSans-6d" x="61.279297"/>
     <use xlink:href="#DejaVuSans-6f" x="158.691406"/>
     <use xlink:href="#DejaVuSans-72" x="219.873047"/>
    </g>
   </g>
   <g id="text_31">
    <!-- espiritual -->
    <g transform="translate(469.134247 413.681898)scale(0.13 -0.13)">
     <use xlink:href="#DejaVuSans-65"/>
     <use xlink:href="#DejaVuSans-73" x="61.523438"/>
     <use xlink:href="#DejaVuSans-70" x="113.623047"/>
     <use xlink:href="#DejaVuSans-69" x="177.099609"/>
     <use xlink:href="#DejaVuSans-72" x="204.882812"/>
     <use xlink:href="#DejaVuSans-69" x="245.996094"/>
     <use xlink:href="#DejaVuSans-74" x="273.779297"/>
     <use xlink:href="#DejaVuSans-75" x="312.988281"/>
     <use xlink:href="#DejaVuSans-61" x="376.367188"/>
     <use xlink:href="#DejaVuSans-6c" x="437.646484"/>
    </g>
   </g>
   <g id="text_32">
    <!-- calma -->
    <g transform="translate(294.22414 399.132427)scale(0.13 -0.13)">
     <use xlink:href="#DejaVuSans-63"/>
     <use xlink:href="#DejaVuSans-61" x="54.980469"/>
     <use xlink:href="#DejaVuSans-6c" x="116.259766"/>
     <use xlink:href="#DejaVuSans-6d" x="144.042969"/>
     <use xlink:href="#DejaVuSans-61" x="241.455078"/>
    </g>
   </g>
   <g id="text_33">
    <!-- tierna -->
    <g transform="translate(293.498752 384.582956)scale(0.13 -0.13)">
     <use xlink:href="#DejaVuSans-74"/>
     <use xlink:href="#DejaVuSans-69" x="39.208984"/>
     <use xlink:href="#DejaVuSans-65" x="66.992188"/>
     <use xlink:href="#DejaVuSans-72" x="128.515625"/>
     <use xlink:href="#DejaVuSans-6e" x="167.878906"/>
     <use xlink:href="#DejaVuSans-61" x="231.257812"/>
    </g>
   </g>
   <g id="text_34">
    <!-- festiva -->
    <g transform="translate(282.509875 370.033485)scale(0.13 -0.13)">
     <use xlink:href="#DejaVuSans-66"/>
     <use xlink:href="#DejaVuSans-65" x="35.205078"/>
     <use xlink:href="#DejaVuSans-73" x="96.728516"/>
     <use xlink:href="#DejaVuSans-74" x="148.828125"/>
     <use xlink:href="#DejaVuSans-69" x="188.037109"/>
     <use xlink:href="#DejaVuSans-76" x="215.820312"/>
     <use xlink:href="#DejaVuSans-61" x="275"/>
    </g>
   </g>
   <g id="text_35">
    <!-- soletat -->
    <g transform="translate(480.781587 355.484014)scale(0.13 -0.13)">
     <use xlink:href="#DejaVuSans-73"/>
     <use xlink:href="#DejaVuSans-6f" x="52.099609"/>
     <use xlink:href="#DejaVuSans-6c" x="113.28125"/>
     <use xlink:href="#DejaVuSans-65" x="141.064453"/>
     <use xlink:href="#DejaVuSans-74" x="202.587891"/>
     <use xlink:href="#DejaVuSans-61" x="241.796875"/>
     <use xlink:href="#DejaVuSans-74" x="303.076172"/>
    </g>
   </g>
   <g id="text_36">
    <!-- poder -->
    <g transform="translate(283.271314 340.934543)scale(0.13 -0.13)">
     <use xlink:href="#DejaVuSans-70"/>
     <use xlink:href="#DejaVuSans-6f" x="63.476562"/>
     <use xlink:href="#DejaVuSans-64" x="124.658203"/>
     <use xlink:href="#DejaVuSans-65" x="188.134766"/>
     <use xlink:href="#DejaVuSans-72" x="249.658203"/>
    </g>
   </g>
   <g id="text_37">
    <!-- miedo -->
    <g transform="translate(489.616633 326.385072)scale(0.13 -0.13)">
     <use xlink:href="#DejaVuSans-6d"/>
     <use xlink:href="#DejaVuSans-69" x="97.412109"/>
     <use xlink:href="#DejaVuSans-65" x="125.195312"/>
     <use xlink:href="#DejaVuSans-64" x="186.71875"/>
     <use xlink:href="#DejaVuSans-6f" x="250.195312"/>
    </g>
   </g>
   <g id="text_38">
    <!-- tensió -->
    <g transform="translate(489.616633 311.835601)scale(0.13 -0.13)">
     <defs>
      <path id="DejaVuSans-f3" d="M 1959 3097 
Q 1497 3097 1228 2736 
Q 959 2375 959 1747 
Q 959 1119 1226 758 
Q 1494 397 1959 397 
Q 2419 397 2687 759 
Q 2956 1122 2956 1747 
Q 2956 2369 2687 2733 
Q 2419 3097 1959 3097 
z
M 1959 3584 
Q 2709 3584 3137 3096 
Q 3566 2609 3566 1747 
Q 3566 888 3137 398 
Q 2709 -91 1959 -91 
Q 1206 -91 779 398 
Q 353 888 353 1747 
Q 353 2609 779 3096 
Q 1206 3584 1959 3584 
z
M 2394 5119 
L 3016 5119 
L 1998 3944 
L 1519 3944 
L 2394 5119 
z
" transform="scale(0.015625)"/>
     </defs>
     <use xlink:href="#DejaVuSans-74"/>
     <use xlink:href="#DejaVuSans-65" x="39.208984"/>
     <use xlink:href="#DejaVuSans-6e" x="100.732422"/>
     <use xlink:href="#DejaVuSans-73" x="164.111328"/>
     <use xlink:href="#DejaVuSans-69" x="216.210938"/>
     <use xlink:href="#DejaVuSans-f3" x="243.994141"/>
    </g>
   </g>
   <g id="text_39">
    <!-- irritante -->
    <g transform="translate(489.616633 297.28613)scale(0.13 -0.13)">
     <use xlink:href="#DejaVuSans-69"/>
     <use xlink:href="#DejaVuSans-72" x="27.783203"/>
     <use xlink:href="#DejaVuSans-72" x="67.146484"/>
     <use xlink:href="#DejaVuSans-69" x="108.259766"/>
     <use xlink:href="#DejaVuSans-74" x="136.042969"/>
     <use xlink:href="#DejaVuSans-61" x="175.251953"/>
     <use xlink:href="#DejaVuSans-6e" x="236.53125"/>
     <use xlink:href="#DejaVuSans-74" x="299.910156"/>
     <use xlink:href="#DejaVuSans-65" x="339.119141"/>
    </g>
   </g>
   <g id="text_40">
    <!-- melancolía -->
    <g transform="translate(497.273292 282.736659)scale(0.13 -0.13)">
     <use xlink:href="#DejaVuSans-6d"/>
     <use xlink:href="#DejaVuSans-65" x="97.412109"/>
     <use xlink:href="#DejaVuSans-6c" x="158.935547"/>
     <use xlink:href="#DejaVuSans-61" x="186.71875"/>
     <use xlink:href="#DejaVuSans-6e" x="247.998047"/>
     <use xlink:href="#DejaVuSans-63" x="311.376953"/>
     <use xlink:href="#DejaVuSans-6f" x="366.357422"/>
     <use xlink:href="#DejaVuSans-6c" x="427.539062"/>
     <use xlink:href="#DejaVuSans-ed" x="455.322266"/>
     <use xlink:href="#DejaVuSans-61" x="483.105469"/>
    </g>
   </g>
   <g id="text_41">
    <!-- animada -->
    <g transform="translate(249.727904 268.187188)scale(0.13 -0.13)">
     <use xlink:href="#DejaVuSans-61"/>
     <use xlink:href="#DejaVuSans-6e" x="61.279297"/>
     <use xlink:href="#DejaVuSans-69" x="124.658203"/>
     <use xlink:href="#DejaVuSans-6d" x="152.441406"/>
     <use xlink:href="#DejaVuSans-61" x="249.853516"/>
     <use xlink:href="#DejaVuSans-64" x="311.132812"/>
     <use xlink:href="#DejaVuSans-61" x="374.609375"/>
    </g>
   </g>
   <g id="text_42">
    <!-- nostalgia -->
    <g transform="translate(498.06393 253.637717)scale(0.13 -0.13)">
     <use xlink:href="#DejaVuSans-6e"/>
     <use xlink:href="#DejaVuSans-6f" x="63.378906"/>
     <use xlink:href="#DejaVuSans-73" x="124.560547"/>
     <use xlink:href="#DejaVuSans-74" x="176.660156"/>
     <use xlink:href="#DejaVuSans-61" x="215.869141"/>
     <use xlink:href="#DejaVuSans-6c" x="277.148438"/>
     <use xlink:href="#DejaVuSans-67" x="304.931641"/>
     <use xlink:href="#DejaVuSans-69" x="368.408203"/>
     <use xlink:href="#DejaVuSans-61" x="396.191406"/>
    </g>
   </g>
   <g id="text_43">
    <!-- tranquilidad -->
    <g transform="translate(226.234369 239.088246)scale(0.13 -0.13)">
     <use xlink:href="#DejaVuSans-74"/>
     <use xlink:href="#DejaVuSans-72" x="39.208984"/>
     <use xlink:href="#DejaVuSans-61" x="80.322266"/>
     <use xlink:href="#DejaVuSans-6e" x="141.601562"/>
     <use xlink:href="#DejaVuSans-71" x="204.980469"/>
     <use xlink:href="#DejaVuSans-75" x="268.457031"/>
     <use xlink:href="#DejaVuSans-69" x="331.835938"/>
     <use xlink:href="#DejaVuSans-6c" x="359.619141"/>
     <use xlink:href="#DejaVuSans-69" x="387.402344"/>
     <use xlink:href="#DejaVuSans-64" x="415.185547"/>
     <use xlink:href="#DejaVuSans-61" x="478.662109"/>
     <use xlink:href="#DejaVuSans-64" x="539.941406"/>
    </g>
   </g>
   <g id="text_44">
    <!-- amargura -->
    <g transform="translate(521.61121 224.538775)scale(0.13 -0.13)">
     <use xlink:href="#DejaVuSans-61"/>
     <use xlink:href="#DejaVuSans-6d" x="61.279297"/>
     <use xlink:href="#DejaVuSans-61" x="158.691406"/>
     <use xlink:href="#DejaVuSans-72" x="219.970703"/>
     <use xlink:href="#DejaVuSans-67" x="259.333984"/>
     <use xlink:href="#DejaVuSans-75" x="322.810547"/>
     <use xlink:href="#DejaVuSans-72" x="386.189453"/>
     <use xlink:href="#DejaVuSans-61" x="427.302734"/>
    </g>
   </g>
   <g id="text_45">
    <!-- disgusto -->
    <g transform="translate(528.944103 209.989304)scale(0.13 -0.13)">
     <use xlink:href="#DejaVuSans-64"/>
     <use xlink:href="#DejaVuSans-69" x="63.476562"/>
     <use xlink:href="#DejaVuSans-73" x="91.259766"/>
     <use xlink:href="#DejaVuSans-67" x="143.359375"/>
     <use xlink:href="#DejaVuSans-75" x="206.835938"/>
     <use xlink:href="#DejaVuSans-73" x="270.214844"/>
     <use xlink:href="#DejaVuSans-74" x="322.314453"/>
     <use xlink:href="#DejaVuSans-6f" x="361.523438"/>
    </g>
   </g>
   <g id="text_46">
    <!-- tensa -->
    <g transform="translate(528.944103 195.439833)scale(0.13 -0.13)">
     <use xlink:href="#DejaVuSans-74"/>
     <use xlink:href="#DejaVuSans-65" x="39.208984"/>
     <use xlink:href="#DejaVuSans-6e" x="100.732422"/>
     <use xlink:href="#DejaVuSans-73" x="164.111328"/>
     <use xlink:href="#DejaVuSans-61" x="216.210938"/>
    </g>
   </g>
   <g id="text_47">
    <!-- paz -->
    <g transform="translate(238.08051 180.890362)scale(0.13 -0.13)">
     <defs>
      <path id="DejaVuSans-7a" d="M 353 3500 
L 3084 3500 
L 3084 2975 
L 922 459 
L 3084 459 
L 3084 0 
L 275 0 
L 275 525 
L 2438 3041 
L 353 3041 
L 353 3500 
z
" transform="scale(0.015625)"/>
     </defs>
     <use xlink:href="#DejaVuSans-70"/>
     <use xlink:href="#DejaVuSans-61" x="63.476562"/>
     <use xlink:href="#DejaVuSans-7a" x="124.755859"/>
    </g>
   </g>
   <g id="text_48">
    <!-- alegre -->
    <g transform="translate(212.064398 166.340891)scale(0.13 -0.13)">
     <use xlink:href="#DejaVuSans-61"/>
     <use xlink:href="#DejaVuSans-6c" x="61.279297"/>
     <use xlink:href="#DejaVuSans-65" x="89.0625"/>
     <use xlink:href="#DejaVuSans-67" x="150.585938"/>
     <use xlink:href="#DejaVuSans-72" x="214.0625"/>
     <use xlink:href="#DejaVuSans-65" x="252.925781"/>
    </g>
   </g>
   <g id="text_49">
    <!-- tristeza -->
    <g transform="translate(560.012677 151.79142)scale(0.13 -0.13)">
     <use xlink:href="#DejaVuSans-74"/>
     <use xlink:href="#DejaVuSans-72" x="39.208984"/>
     <use xlink:href="#DejaVuSans-69" x="80.322266"/>
     <use xlink:href="#DejaVuSans-73" x="108.105469"/>
     <use xlink:href="#DejaVuSans-74" x="160.205078"/>
     <use xlink:href="#DejaVuSans-65" x="199.414062"/>
     <use xlink:href="#DejaVuSans-7a" x="260.9375"/>
     <use xlink:href="#DejaVuSans-61" x="313.427734"/>
    </g>
   </g>
   <g id="text_50">
    <!-- alegria -->
    <g transform="translate(198.825317 137.241949)scale(0.13 -0.13)">
     <use xlink:href="#DejaVuSans-61"/>
     <use xlink:href="#DejaVuSans-6c" x="61.279297"/>
     <use xlink:href="#DejaVuSans-65" x="89.0625"/>
     <use xlink:href="#DejaVuSans-67" x="150.585938"/>
     <use xlink:href="#DejaVuSans-72" x="214.0625"/>
     <use xlink:href="#DejaVuSans-69" x="255.175781"/>
     <use xlink:href="#DejaVuSans-61" x="282.958984"/>
    </g>
   </g>
   <g id="text_51">
    <!-- tristesa -->
    <g transform="translate(570.711859 122.692478)scale(0.13 -0.13)">
     <use xlink:href="#DejaVuSans-74"/>
     <use xlink:href="#DejaVuSans-72" x="39.208984"/>
     <use xlink:href="#DejaVuSans-69" x="80.322266"/>
     <use xlink:href="#DejaVuSans-73" x="108.105469"/>
     <use xlink:href="#DejaVuSans-74" x="160.205078"/>
     <use xlink:href="#DejaVuSans-65" x="199.414062"/>
     <use xlink:href="#DejaVuSans-73" x="260.9375"/>
     <use xlink:href="#DejaVuSans-61" x="313.037109"/>
    </g>
   </g>
   <g id="text_52">
    <!-- alegría -->
    <g transform="translate(185.856212 108.403007)scale(0.13 -0.13)">
     <use xlink:href="#DejaVuSans-61"/>
     <use xlink:href="#DejaVuSans-6c" x="61.279297"/>
     <use xlink:href="#DejaVuSans-65" x="89.0625"/>
     <use xlink:href="#DejaVuSans-67" x="150.585938"/>
     <use xlink:href="#DejaVuSans-72" x="214.0625"/>
     <use xlink:href="#DejaVuSans-ed" x="255.175781"/>
     <use xlink:href="#DejaVuSans-61" x="282.958984"/>
    </g>
   </g>
   <g id="text_53">
    <!-- triste -->
    <g transform="translate(590.483671 93.593536)scale(0.13 -0.13)">
     <use xlink:href="#DejaVuSans-74"/>
     <use xlink:href="#DejaVuSans-72" x="39.208984"/>
     <use xlink:href="#DejaVuSans-69" x="80.322266"/>
     <use xlink:href="#DejaVuSans-73" x="108.105469"/>
     <use xlink:href="#DejaVuSans-74" x="160.205078"/>
     <use xlink:href="#DejaVuSans-65" x="199.414062"/>
    </g>
   </g>
   <g id="text_54">
    <!-- $\Sigma$ -->
    <g transform="translate(360.174765 64.494594)scale(0.13 -0.13)">
     <defs>
      <path id="DejaVuSans-3a3" d="M 1353 531 
L 3634 531 
L 3634 0 
L 628 0 
L 628 531 
L 2125 2481 
L 628 4134 
L 628 4666 
L 3578 4666 
L 3578 4134 
L 1353 4134 
L 2850 2494 
L 1353 531 
z
" transform="scale(0.015625)"/>
     </defs>
     <use xlink:href="#DejaVuSans-3a3" transform="translate(0 0.09375)"/>
    </g>
   </g>
   <g id="patch_10">
    <path d="M 402.085625 590.508151 
L 351.311081 590.508151 
L 351.311081 578.868574 
L 402.085625 578.868574 
z
" clip-path="url(#p2cb848bd5e)" style="fill: #9e75b7; stroke: #000000; stroke-width: 0.25; stroke-linejoin: miter"/>
   </g>
   <g id="patch_11">
    <path d="M 402.085625 575.95868 
L 351.311081 575.95868 
L 351.311081 564.319103 
L 402.085625 564.319103 
z
" clip-path="url(#p2cb848bd5e)" style="fill: #9e75b7; stroke: #000000; stroke-width: 0.25; stroke-linejoin: miter"/>
   </g>
   <g id="patch_12">
    <path d="M 402.085625 561.409209 
L 351.311081 561.409209 
L 351.311081 549.769632 
L 402.085625 549.769632 
z
" clip-path="url(#p2cb848bd5e)" style="fill: #9e75b7; stroke: #000000; stroke-width: 0.25; stroke-linejoin: miter"/>
   </g>
   <g id="patch_13">
    <path d="M 402.085625 546.859738 
L 351.270871 546.859738 
L 351.270871 535.220161 
L 402.085625 535.220161 
z
" clip-path="url(#p2cb848bd5e)" style="fill: #9e75b7; stroke: #000000; stroke-width: 0.25; stroke-linejoin: miter"/>
   </g>
   <g id="patch_14">
    <path d="M 402.085625 532.310267 
L 453.041403 532.310267 
L 453.041403 520.67069 
L 402.085625 520.67069 
z
" clip-path="url(#p2cb848bd5e)" style="fill: #fecc5d; stroke: #000000; stroke-width: 0.25; stroke-linejoin: miter"/>
   </g>
   <g id="patch_15">
    <path d="M 402.085625 517.760796 
L 453.041403 517.760796 
L 453.041403 506.121219 
L 402.085625 506.121219 
z
" clip-path="url(#p2cb848bd5e)" style="fill: #fecc5d; stroke: #000000; stroke-width: 0.25; stroke-linejoin: miter"/>
   </g>
   <g id="patch_16">
    <path d="M 402.085625 503.211325 
L 453.041403 503.211325 
L 453.041403 491.571748 
L 402.085625 491.571748 
z
" clip-path="url(#p2cb848bd5e)" style="fill: #fecc5d; stroke: #000000; stroke-width: 0.25; stroke-linejoin: miter"/>
   </g>
   <g id="patch_17">
    <path d="M 402.085625 488.661854 
L 453.041403 488.661854 
L 453.041403 477.022277 
L 402.085625 477.022277 
z
" clip-path="url(#p2cb848bd5e)" style="fill: #fecc5d; stroke: #000000; stroke-width: 0.25; stroke-linejoin: miter"/>
   </g>
   <g id="patch_18">
    <path d="M 402.085625 474.112383 
L 348.952409 474.112383 
L 348.952409 462.472806 
L 402.085625 462.472806 
z
" clip-path="url(#p2cb848bd5e)" style="fill: #9e75b7; stroke: #000000; stroke-width: 0.25; stroke-linejoin: miter"/>
   </g>
   <g id="patch_19">
    <path d="M 402.085625 459.562912 
L 456.52134 459.562912 
L 456.52134 447.923335 
L 402.085625 447.923335 
z
" clip-path="url(#p2cb848bd5e)" style="fill: #fecc5d; stroke: #000000; stroke-width: 0.25; stroke-linejoin: miter"/>
   </g>
   <g id="patch_20">
    <path d="M 402.085625 445.013441 
L 345.655653 445.013441 
L 345.655653 433.373864 
L 402.085625 433.373864 
z
" clip-path="url(#p2cb848bd5e)" style="fill: #9e75b7; stroke: #000000; stroke-width: 0.25; stroke-linejoin: miter"/>
   </g>
   <g id="patch_21">
    <path d="M 402.085625 430.46397 
L 344.177064 430.46397 
L 344.177064 418.824393 
L 402.085625 418.824393 
z
" clip-path="url(#p2cb848bd5e)" style="fill: #9e75b7; stroke: #000000; stroke-width: 0.25; stroke-linejoin: miter"/>
   </g>
   <g id="patch_22">
    <path d="M 402.085625 415.914499 
L 460.474348 415.914499 
L 460.474348 404.274922 
L 402.085625 404.274922 
z
" clip-path="url(#p2cb848bd5e)" style="fill: #fecc5d; stroke: #000000; stroke-width: 0.25; stroke-linejoin: miter"/>
   </g>
   <g id="patch_23">
    <path d="M 402.085625 401.365028 
L 342.239507 401.365028 
L 342.239507 389.725451 
L 402.085625 389.725451 
z
" clip-path="url(#p2cb848bd5e)" style="fill: #9e75b7; stroke: #000000; stroke-width: 0.25; stroke-linejoin: miter"/>
   </g>
   <g id="patch_24">
    <path d="M 402.085625 386.815557 
L 340.187713 386.815557 
L 340.187713 375.17598 
L 402.085625 375.17598 
z
" clip-path="url(#p2cb848bd5e)" style="fill: #9e75b7; stroke: #000000; stroke-width: 0.25; stroke-linejoin: miter"/>
   </g>
   <g id="patch_25">
    <path d="M 402.085625 372.266086 
L 334.886335 372.266086 
L 334.886335 360.626509 
L 402.085625 360.626509 
z
" clip-path="url(#p2cb848bd5e)" style="fill: #9e75b7; stroke: #000000; stroke-width: 0.25; stroke-linejoin: miter"/>
   </g>
   <g id="patch_26">
    <path d="M 402.085625 357.716615 
L 472.121689 357.716615 
L 472.121689 346.077038 
L 402.085625 346.077038 
z
" clip-path="url(#p2cb848bd5e)" style="fill: #fecc5d; stroke: #000000; stroke-width: 0.25; stroke-linejoin: miter"/>
   </g>
   <g id="patch_27">
    <path d="M 402.085625 343.167144 
L 329.734806 343.167144 
L 329.734806 331.527567 
L 402.085625 331.527567 
z
" clip-path="url(#p2cb848bd5e)" style="fill: #9e75b7; stroke: #000000; stroke-width: 0.25; stroke-linejoin: miter"/>
   </g>
   <g id="patch_28">
    <path d="M 402.085625 328.617673 
L 480.956735 328.617673 
L 480.956735 316.978096 
L 402.085625 316.978096 
z
" clip-path="url(#p2cb848bd5e)" style="fill: #fecc5d; stroke: #000000; stroke-width: 0.25; stroke-linejoin: miter"/>
   </g>
   <g id="patch_29">
    <path d="M 402.085625 314.068202 
L 480.956735 314.068202 
L 480.956735 302.428625 
L 402.085625 302.428625 
z
" clip-path="url(#p2cb848bd5e)" style="fill: #fecc5d; stroke: #000000; stroke-width: 0.25; stroke-linejoin: miter"/>
   </g>
   <g id="patch_30">
    <path d="M 402.085625 299.518731 
L 480.956735 299.518731 
L 480.956735 287.879154 
L 402.085625 287.879154 
z
" clip-path="url(#p2cb848bd5e)" style="fill: #fecc5d; stroke: #000000; stroke-width: 0.25; stroke-linejoin: miter"/>
   </g>
   <g id="patch_31">
    <path d="M 402.085625 284.96926 
L 488.613394 284.96926 
L 488.613394 273.329683 
L 402.085625 273.329683 
z
" clip-path="url(#p2cb848bd5e)" style="fill: #fecc5d; stroke: #000000; stroke-width: 0.25; stroke-linejoin: miter"/>
   </g>
   <g id="patch_32">
    <path d="M 402.085625 270.419789 
L 315.053584 270.419789 
L 315.053584 258.780212 
L 402.085625 258.780212 
z
" clip-path="url(#p2cb848bd5e)" style="fill: #9e75b7; stroke: #000000; stroke-width: 0.25; stroke-linejoin: miter"/>
   </g>
   <g id="patch_33">
    <path d="M 402.085625 255.870318 
L 489.404032 255.870318 
L 489.404032 244.230741 
L 402.085625 244.230741 
z
" clip-path="url(#p2cb848bd5e)" style="fill: #fecc5d; stroke: #000000; stroke-width: 0.25; stroke-linejoin: miter"/>
   </g>
   <g id="patch_34">
    <path d="M 402.085625 241.320847 
L 313.339111 241.320847 
L 313.339111 229.68127 
L 402.085625 229.68127 
z
" clip-path="url(#p2cb848bd5e)" style="fill: #9e75b7; stroke: #000000; stroke-width: 0.25; stroke-linejoin: miter"/>
   </g>
   <g id="patch_35">
    <path d="M 402.085625 226.771376 
L 512.951311 226.771376 
L 512.951311 215.131799 
L 402.085625 215.131799 
z
" clip-path="url(#p2cb848bd5e)" style="fill: #fecc5d; stroke: #000000; stroke-width: 0.25; stroke-linejoin: miter"/>
   </g>
   <g id="patch_36">
    <path d="M 402.085625 212.221905 
L 520.284204 212.221905 
L 520.284204 200.582328 
L 402.085625 200.582328 
z
" clip-path="url(#p2cb848bd5e)" style="fill: #fecc5d; stroke: #000000; stroke-width: 0.25; stroke-linejoin: miter"/>
   </g>
   <g id="patch_37">
    <path d="M 402.085625 197.672434 
L 520.284204 197.672434 
L 520.284204 186.032857 
L 402.085625 186.032857 
z
" clip-path="url(#p2cb848bd5e)" style="fill: #fecc5d; stroke: #000000; stroke-width: 0.25; stroke-linejoin: miter"/>
   </g>
   <g id="patch_38">
    <path d="M 402.085625 183.122963 
L 269.782908 183.122963 
L 269.782908 171.483386 
L 402.085625 171.483386 
z
" clip-path="url(#p2cb848bd5e)" style="fill: #9e75b7; stroke: #000000; stroke-width: 0.25; stroke-linejoin: miter"/>
   </g>
   <g id="patch_39">
    <path d="M 402.085625 168.573492 
L 261.605233 168.573492 
L 261.605233 156.933915 
L 402.085625 156.933915 
z
" clip-path="url(#p2cb848bd5e)" style="fill: #9e75b7; stroke: #000000; stroke-width: 0.25; stroke-linejoin: miter"/>
   </g>
   <g id="patch_40">
    <path d="M 402.085625 154.024021 
L 551.352779 154.024021 
L 551.352779 142.384444 
L 402.085625 142.384444 
z
" clip-path="url(#p2cb848bd5e)" style="fill: #fecc5d; stroke: #000000; stroke-width: 0.25; stroke-linejoin: miter"/>
   </g>
   <g id="patch_41">
    <path d="M 402.085625 139.47455 
L 252.237715 139.47455 
L 252.237715 127.834973 
L 402.085625 127.834973 
z
" clip-path="url(#p2cb848bd5e)" style="fill: #9e75b7; stroke: #000000; stroke-width: 0.25; stroke-linejoin: miter"/>
   </g>
   <g id="patch_42">
    <path d="M 402.085625 124.925079 
L 562.051961 124.925079 
L 562.051961 113.285502 
L 402.085625 113.285502 
z
" clip-path="url(#p2cb848bd5e)" style="fill: #fecc5d; stroke: #000000; stroke-width: 0.25; stroke-linejoin: miter"/>
   </g>
   <g id="patch_43">
    <path d="M 402.085625 110.375608 
L 239.268611 110.375608 
L 239.268611 98.736031 
L 402.085625 98.736031 
z
" clip-path="url(#p2cb848bd5e)" style="fill: #9e75b7; stroke: #000000; stroke-width: 0.25; stroke-linejoin: miter"/>
   </g>
   <g id="patch_44">
    <path d="M 402.085625 95.826137 
L 581.823773 95.826137 
L 581.823773 84.18656 
L 402.085625 84.18656 
z
" clip-path="url(#p2cb848bd5e)" style="fill: #fecc5d; stroke: #000000; stroke-width: 0.25; stroke-linejoin: miter"/>
   </g>
   <g id="line2d_16">
    <path d="M 402.085625 593.294375 
L 402.085625 30.477187 
" clip-path="url(#p2cb848bd5e)" style="fill: none; stroke: #000000; stroke-linecap: square"/>
   </g>
   <g id="line2d_17">
    <path d="M 58.97125 75.456877 
L 745.2 75.456877 
" clip-path="url(#p2cb848bd5e)" style="fill: none; stroke: #000000; stroke-width: 0.7; stroke-linecap: square"/>
   </g>
   <g id="line2d_18">
    <path d="M 58.97125 49.995303 
L 745.2 49.995303 
" clip-path="url(#p2cb848bd5e)" style="fill: none; stroke: #000000; stroke-width: 0.5; stroke-linecap: square"/>
   </g>
  </g>
  <g id="axes_2">
   <g id="patch_45">
    <path d="M 612.36 570.24 
L 672.84 570.24 
L 672.84 518.4 
L 612.36 518.4 
z
" style="fill: #ffffff"/>
   </g>
   <g id="patch_46">
    <path d="M 612.36 541.728 
L 669.96 541.728 
L 669.96 536.544 
L 612.36 536.544 
z
" clip-path="url(#p234806a7ff)" style="fill: #707070; stroke: #000000; stroke-width: 0.5; stroke-linejoin: miter"/>
   </g>
   <g id="patch_47">
    <path d="M 612.36 552.096 
L 645.126853 552.096 
L 645.126853 546.912 
L 612.36 546.912 
z
" clip-path="url(#p234806a7ff)" style="fill: #707070; stroke: #000000; stroke-width: 0.5; stroke-linejoin: miter"/>
   </g>
   <g id="matplotlib.axis_3">
    <g id="ytick_9">
     <g id="line2d_19"/>
     <g id="text_55">
      <!-- Pos. Valence -->
      <g transform="translate(533.90125 543.695062)scale(0.12 -0.12)">
       <defs>
        <path id="DejaVuSans-50" d="M 1259 4147 
L 1259 2394 
L 2053 2394 
Q 2494 2394 2734 2622 
Q 2975 2850 2975 3272 
Q 2975 3691 2734 3919 
Q 2494 4147 2053 4147 
L 1259 4147 
z
M 628 4666 
L 2053 4666 
Q 2838 4666 3239 4311 
Q 3641 3956 3641 3272 
Q 3641 2581 3239 2228 
Q 2838 1875 2053 1875 
L 1259 1875 
L 1259 0 
L 628 0 
L 628 4666 
z
" transform="scale(0.015625)"/>
        <path id="DejaVuSans-56" d="M 1831 0 
L 50 4666 
L 709 4666 
L 2188 738 
L 3669 4666 
L 4325 4666 
L 2547 0 
L 1831 0 
z
" transform="scale(0.015625)"/>
       </defs>
       <use xlink:href="#DejaVuSans-50"/>
       <use xlink:href="#DejaVuSans-6f" x="56.677734"/>
       <use xlink:href="#DejaVuSans-73" x="117.859375"/>
       <use xlink:href="#DejaVuSans-2e" x="169.958984"/>
       <use xlink:href="#DejaVuSans-20" x="201.746094"/>
       <use xlink:href="#DejaVuSans-56" x="233.533203"/>
       <use xlink:href="#DejaVuSans-61" x="294.191406"/>
       <use xlink:href="#DejaVuSans-6c" x="355.470703"/>
       <use xlink:href="#DejaVuSans-65" x="383.253906"/>
       <use xlink:href="#DejaVuSans-6e" x="444.777344"/>
       <use xlink:href="#DejaVuSans-63" x="508.15625"/>
       <use xlink:href="#DejaVuSans-65" x="563.136719"/>
      </g>
     </g>
    </g>
    <g id="ytick_10">
     <g id="line2d_20"/>
     <g id="text_56">
      <!-- Neg. Valence -->
      <g transform="translate(530.31625 554.063063)scale(0.12 -0.12)">
       <defs>
        <path id="DejaVuSans-4e" d="M 628 4666 
L 1478 4666 
L 3547 763 
L 3547 4666 
L 4159 4666 
L 4159 0 
L 3309 0 
L 1241 3903 
L 1241 0 
L 628 0 
L 628 4666 
z
" transform="scale(0.015625)"/>
       </defs>
       <use xlink:href="#DejaVuSans-4e"/>
       <use xlink:href="#DejaVuSans-65" x="74.804688"/>
       <use xlink:href="#DejaVuSans-67" x="136.328125"/>
       <use xlink:href="#DejaVuSans-2e" x="199.804688"/>
       <use xlink:href="#DejaVuSans-20" x="231.591797"/>
       <use xlink:href="#DejaVuSans-56" x="263.378906"/>
       <use xlink:href="#DejaVuSans-61" x="324.037109"/>
       <use xlink:href="#DejaVuSans-6c" x="385.316406"/>
       <use xlink:href="#DejaVuSans-65" x="413.099609"/>
       <use xlink:href="#DejaVuSans-6e" x="474.623047"/>
       <use xlink:href="#DejaVuSans-63" x="538.001953"/>
       <use xlink:href="#DejaVuSans-65" x="592.982422"/>
      </g>
     </g>
    </g>
   </g>
   <g id="text_57">
    <!-- Text Size: -->
    <g transform="translate(608.05 531.36)scale(0.14 -0.14)">
     <defs>
      <path id="DejaVuSans-54" d="M -19 4666 
L 3928 4666 
L 3928 4134 
L 2272 4134 
L 2272 0 
L 1638 0 
L 1638 4134 
L -19 4134 
L -19 4666 
z
" transform="scale(0.015625)"/>
      <path id="DejaVuSans-3a" d="M 750 794 
L 1409 794 
L 1409 0 
L 750 0 
L 750 794 
z
M 750 3309 
L 1409 3309 
L 1409 2516 
L 750 2516 
L 750 3309 
z
" transform="scale(0.015625)"/>
     </defs>
     <use xlink:href="#DejaVuSans-54"/>
     <use xlink:href="#DejaVuSans-65" x="44.083984"/>
     <use xlink:href="#DejaVuSans-78" x="103.857422"/>
     <use xlink:href="#DejaVuSans-74" x="163.037109"/>
     <use xlink:href="#DejaVuSans-20" x="202.246094"/>
     <use xlink:href="#DejaVuSans-53" x="234.033203"/>
     <use xlink:href="#DejaVuSans-69" x="297.509766"/>
     <use xlink:href="#DejaVuSans-7a" x="325.292969"/>
     <use xlink:href="#DejaVuSans-65" x="377.783203"/>
     <use xlink:href="#DejaVuSans-3a" x="439.306641"/>
    </g>
   </g>
  </g>
 </g>
 <defs>
  <clipPath id="p2cb848bd5e">
   <rect x="58.97125" y="30.477187" width="686.22875" height="562.817188"/>
  </clipPath>
  <clipPath id="p234806a7ff">
   <rect x="612.36" y="518.4" width="60.48" height="51.84"/>
  </clipPath>
 </defs>
</svg>
